<svg xmlns="http://www.w3.org/2000/svg" xmlns:xlink="http://www.w3.org/1999/xlink" width="500" zoomAndPan="magnify" viewBox="0 0 375 374.999991" height="500" preserveAspectRatio="xMidYMid meet" version="1.0"><defs><clipPath id="id1"><path d="M 113 122.316406 L 182 122.316406 L 182 252.816406 L 113 252.816406 Z M 113 122.316406 " clip-rule="nonzero"/></clipPath><clipPath id="id2"><path d="M 224 122.316406 L 262 122.316406 L 262 252.816406 L 224 252.816406 Z M 224 122.316406 " clip-rule="nonzero"/></clipPath></defs><g clip-path="url(#id1)"><path fill="rgb(100%, 100%, 100%)" d="M 176.890625 123.386719 C 176.28125 123.152344 175.648438 123.015625 174.996094 122.972656 C 174.34375 122.933594 173.703125 122.988281 173.066406 123.140625 C 172.429688 123.292969 171.832031 123.539062 171.269531 123.871094 C 170.710938 124.207031 170.210938 124.617188 169.773438 125.101562 L 142.570312 155.347656 L 119.570312 155.347656 C 119.144531 155.347656 118.726562 155.390625 118.308594 155.472656 C 117.890625 155.554688 117.488281 155.679688 117.09375 155.839844 C 116.703125 156.003906 116.328125 156.203125 115.976562 156.4375 C 115.625 156.675781 115.296875 156.945312 114.996094 157.246094 C 114.695312 157.546875 114.425781 157.871094 114.191406 158.226562 C 113.957031 158.578125 113.757812 158.953125 113.59375 159.347656 C 113.429688 159.738281 113.308594 160.144531 113.226562 160.5625 C 113.144531 160.976562 113.101562 161.398438 113.101562 161.824219 L 113.101562 216.875 C 113.101562 217.300781 113.144531 217.71875 113.226562 218.136719 C 113.308594 218.554688 113.429688 218.960938 113.59375 219.351562 C 113.757812 219.746094 113.957031 220.117188 114.191406 220.472656 C 114.425781 220.824219 114.695312 221.152344 114.996094 221.453125 C 115.296875 221.753906 115.625 222.023438 115.976562 222.257812 C 116.328125 222.496094 116.703125 222.695312 117.09375 222.855469 C 117.488281 223.019531 117.890625 223.144531 118.308594 223.226562 C 118.726562 223.308594 119.144531 223.351562 119.570312 223.351562 L 142.765625 223.351562 L 169.96875 250.582031 C 170.417969 251.039062 170.925781 251.417969 171.492188 251.722656 C 172.054688 252.027344 172.652344 252.246094 173.28125 252.371094 C 173.910156 252.5 174.542969 252.53125 175.179688 252.46875 C 175.820312 252.410156 176.433594 252.253906 177.027344 252.011719 C 177.621094 251.765625 178.164062 251.441406 178.660156 251.035156 C 179.15625 250.628906 179.582031 250.15625 179.9375 249.625 C 180.296875 249.089844 180.566406 248.515625 180.753906 247.902344 C 180.9375 247.289062 181.03125 246.660156 181.03125 246.019531 L 181.03125 129.441406 C 181.03125 128.789062 180.9375 128.148438 180.742188 127.519531 C 180.550781 126.894531 180.269531 126.3125 179.898438 125.769531 C 179.53125 125.230469 179.089844 124.757812 178.574219 124.351562 C 178.0625 123.945312 177.5 123.621094 176.890625 123.386719 Z M 168.089844 230.378906 L 150.007812 212.277344 C 149.402344 211.671875 148.703125 211.210938 147.914062 210.882812 C 147.125 210.558594 146.304688 210.398438 145.449219 210.398438 L 126.039062 210.398438 L 126.039062 168.300781 L 145.449219 168.300781 C 146.367188 168.304688 147.246094 168.117188 148.085938 167.746094 C 148.925781 167.375 149.652344 166.847656 150.269531 166.164062 L 168.089844 146.3125 L 168.089844 230.507812 Z M 168.089844 230.378906 " fill-opacity="1" fill-rule="nonzero"/></g><path fill="rgb(100%, 100%, 100%)" d="M 218.359375 142.394531 C 218.058594 142.09375 217.730469 141.828125 217.375 141.589844 C 217.019531 141.355469 216.648438 141.15625 216.253906 140.996094 C 215.859375 140.832031 215.457031 140.710938 215.039062 140.628906 C 214.621094 140.546875 214.199219 140.507812 213.773438 140.507812 C 213.347656 140.511719 212.929688 140.554688 212.511719 140.636719 C 212.09375 140.722656 211.691406 140.847656 211.296875 141.011719 C 210.90625 141.175781 210.53125 141.375 210.179688 141.613281 C 209.828125 141.851562 209.5 142.121094 209.199219 142.421875 C 208.902344 142.726562 208.632812 143.054688 208.398438 143.410156 C 208.164062 143.761719 207.964844 144.136719 207.804688 144.53125 C 207.644531 144.925781 207.523438 145.332031 207.441406 145.75 C 207.359375 146.167969 207.320312 146.589844 207.320312 147.015625 C 207.324219 147.441406 207.367188 147.863281 207.449219 148.28125 C 207.535156 148.695312 207.660156 149.101562 207.824219 149.496094 C 207.988281 149.886719 208.191406 150.257812 208.425781 150.613281 C 208.664062 150.964844 208.933594 151.292969 209.238281 151.589844 C 210.433594 152.777344 211.566406 154.015625 212.636719 155.3125 C 213.707031 156.609375 214.714844 157.953125 215.652344 159.351562 C 216.59375 160.746094 217.460938 162.183594 218.257812 163.667969 C 219.054688 165.148438 219.777344 166.664062 220.421875 168.21875 C 221.070312 169.773438 221.640625 171.355469 222.128906 172.964844 C 222.621094 174.574219 223.03125 176.203125 223.359375 177.851562 C 223.691406 179.503906 223.9375 181.164062 224.105469 182.839844 C 224.269531 184.515625 224.355469 186.191406 224.355469 187.875 C 224.355469 189.558594 224.269531 191.238281 224.105469 192.910156 C 223.9375 194.585938 223.691406 196.25 223.359375 197.898438 C 223.03125 199.550781 222.621094 201.179688 222.128906 202.789062 C 221.640625 204.398438 221.070312 205.980469 220.421875 207.53125 C 219.777344 209.085938 219.054688 210.601562 218.257812 212.085938 C 217.460938 213.566406 216.59375 215.003906 215.652344 216.402344 C 214.714844 217.796875 213.707031 219.144531 212.636719 220.4375 C 211.566406 221.734375 210.433594 222.976562 209.238281 224.160156 C 208.855469 224.4375 208.503906 224.75 208.1875 225.101562 C 207.875 225.457031 207.601562 225.835938 207.371094 226.25 C 207.140625 226.664062 206.953125 227.09375 206.820312 227.546875 C 206.683594 228 206.597656 228.464844 206.5625 228.933594 C 206.523438 229.40625 206.542969 229.875 206.609375 230.34375 C 206.675781 230.8125 206.792969 231.269531 206.960938 231.710938 C 207.128906 232.152344 207.339844 232.570312 207.597656 232.96875 C 207.859375 233.363281 208.15625 233.726562 208.496094 234.054688 C 208.832031 234.386719 209.203125 234.675781 209.605469 234.925781 C 210.007812 235.175781 210.429688 235.378906 210.875 235.535156 C 211.324219 235.691406 211.78125 235.796875 212.25 235.851562 C 212.71875 235.90625 213.1875 235.910156 213.65625 235.863281 C 214.128906 235.816406 214.585938 235.71875 215.035156 235.570312 C 215.484375 235.421875 215.914062 235.226562 216.320312 234.984375 C 216.726562 234.746094 217.101562 234.460938 217.445312 234.136719 C 217.789062 233.8125 218.09375 233.457031 218.359375 233.066406 C 219.101562 232.324219 219.824219 231.566406 220.53125 230.789062 C 221.234375 230.011719 221.921875 229.21875 222.589844 228.40625 C 223.253906 227.597656 223.898438 226.769531 224.527344 225.925781 C 225.152344 225.085938 225.757812 224.226562 226.339844 223.355469 C 226.921875 222.484375 227.484375 221.597656 228.023438 220.699219 C 228.566406 219.796875 229.082031 218.886719 229.578125 217.960938 C 230.074219 217.035156 230.542969 216.097656 230.992188 215.148438 C 231.441406 214.199219 231.867188 213.242188 232.269531 212.273438 C 232.671875 211.304688 233.050781 210.324219 233.402344 209.335938 C 233.757812 208.347656 234.085938 207.351562 234.390625 206.347656 C 234.699219 205.34375 234.976562 204.332031 235.234375 203.3125 C 235.488281 202.296875 235.71875 201.273438 235.921875 200.242188 C 236.128906 199.214844 236.308594 198.179688 236.460938 197.140625 C 236.617188 196.101562 236.746094 195.0625 236.847656 194.015625 C 236.949219 192.972656 237.027344 191.925781 237.078125 190.878906 C 237.128906 189.828125 237.15625 188.78125 237.15625 187.730469 C 237.15625 186.679688 237.128906 185.632812 237.078125 184.582031 C 237.027344 183.535156 236.949219 182.488281 236.847656 181.445312 C 236.746094 180.398438 236.617188 179.355469 236.460938 178.320312 C 236.308594 177.28125 236.128906 176.246094 235.921875 175.21875 C 235.71875 174.1875 235.488281 173.164062 235.234375 172.144531 C 234.976562 171.128906 234.699219 170.117188 234.390625 169.113281 C 234.085938 168.109375 233.757812 167.113281 233.402344 166.125 C 233.050781 165.136719 232.671875 164.15625 232.269531 163.1875 C 231.867188 162.21875 231.441406 161.257812 230.992188 160.308594 C 230.542969 159.363281 230.074219 158.425781 229.578125 157.5 C 229.082031 156.574219 228.566406 155.660156 228.023438 154.761719 C 227.484375 153.863281 226.921875 152.976562 226.339844 152.105469 C 225.757812 151.230469 225.152344 150.375 224.527344 149.53125 C 223.898438 148.691406 223.253906 147.863281 222.589844 147.054688 C 221.921875 146.242188 221.234375 145.449219 220.53125 144.671875 C 219.824219 143.894531 219.101562 143.136719 218.359375 142.394531 Z M 218.359375 142.394531 " fill-opacity="1" fill-rule="nonzero"/><g clip-path="url(#id2)"><path fill="rgb(100%, 100%, 100%)" d="M 235.761719 124.972656 C 235.46875 124.648438 235.144531 124.359375 234.789062 124.097656 C 234.433594 123.839844 234.058594 123.621094 233.660156 123.4375 C 233.261719 123.257812 232.847656 123.117188 232.421875 123.019531 C 231.992188 122.921875 231.5625 122.867188 231.125 122.855469 C 230.683594 122.847656 230.25 122.878906 229.820312 122.957031 C 229.386719 123.035156 228.96875 123.15625 228.5625 123.320312 C 228.15625 123.484375 227.769531 123.6875 227.40625 123.929688 C 227.039062 124.171875 226.703125 124.449219 226.394531 124.757812 C 226.082031 125.070312 225.808594 125.410156 225.566406 125.777344 C 225.328125 126.140625 225.125 126.527344 224.964844 126.9375 C 224.800781 127.34375 224.683594 127.765625 224.605469 128.195312 C 224.53125 128.628906 224.496094 129.0625 224.507812 129.5 C 224.519531 129.941406 224.574219 130.371094 224.675781 130.800781 C 224.773438 131.226562 224.914062 131.640625 225.097656 132.039062 C 225.28125 132.4375 225.503906 132.8125 225.761719 133.167969 C 226.023438 133.519531 226.316406 133.84375 226.640625 134.136719 C 227.519531 135.011719 228.378906 135.90625 229.21875 136.824219 C 230.054688 137.738281 230.867188 138.675781 231.660156 139.632812 C 232.449219 140.589844 233.214844 141.5625 233.957031 142.558594 C 234.699219 143.554688 235.417969 144.566406 236.109375 145.59375 C 236.804688 146.625 237.472656 147.671875 238.113281 148.734375 C 238.753906 149.796875 239.367188 150.875 239.953125 151.96875 C 240.542969 153.0625 241.101562 154.167969 241.636719 155.289062 C 242.167969 156.410156 242.675781 157.542969 243.152344 158.691406 C 243.628906 159.835938 244.078125 160.992188 244.5 162.160156 C 244.917969 163.328125 245.308594 164.507812 245.671875 165.695312 C 246.035156 166.882812 246.367188 168.078125 246.667969 169.28125 C 246.972656 170.488281 247.246094 171.695312 247.488281 172.914062 C 247.734375 174.132812 247.945312 175.355469 248.128906 176.582031 C 248.3125 177.8125 248.464844 179.042969 248.585938 180.277344 C 248.710938 181.511719 248.800781 182.75 248.863281 183.992188 C 248.921875 185.230469 248.953125 186.472656 248.953125 187.714844 C 248.953125 188.957031 248.921875 190.195312 248.863281 191.4375 C 248.800781 192.675781 248.710938 193.914062 248.585938 195.148438 C 248.464844 196.386719 248.3125 197.617188 248.128906 198.84375 C 247.945312 200.074219 247.734375 201.296875 247.488281 202.511719 C 247.246094 203.730469 246.972656 204.941406 246.667969 206.144531 C 246.367188 207.347656 246.035156 208.546875 245.671875 209.734375 C 245.308594 210.921875 244.917969 212.097656 244.5 213.265625 C 244.078125 214.433594 243.628906 215.589844 243.152344 216.738281 C 242.675781 217.882812 242.167969 219.015625 241.636719 220.136719 C 241.101562 221.257812 240.542969 222.367188 239.953125 223.460938 C 239.367188 224.550781 238.753906 225.628906 238.113281 226.691406 C 237.472656 227.757812 236.804688 228.800781 236.109375 229.832031 C 235.417969 230.863281 234.699219 231.875 233.957031 232.867188 C 233.214844 233.863281 232.449219 234.839844 231.660156 235.796875 C 230.867188 236.753906 230.054688 237.6875 229.21875 238.605469 C 228.378906 239.519531 227.519531 240.417969 226.640625 241.289062 C 226.339844 241.589844 226.070312 241.917969 225.832031 242.269531 C 225.59375 242.621094 225.394531 242.996094 225.230469 243.386719 C 225.066406 243.78125 224.941406 244.183594 224.855469 244.601562 C 224.773438 245.019531 224.730469 245.441406 224.726562 245.867188 C 224.726562 246.289062 224.765625 246.710938 224.847656 247.128906 C 224.929688 247.546875 225.050781 247.953125 225.210938 248.347656 C 225.375 248.742188 225.570312 249.113281 225.804688 249.46875 C 226.042969 249.824219 226.308594 250.152344 226.609375 250.453125 C 226.90625 250.757812 227.234375 251.027344 227.585938 251.261719 C 227.9375 251.5 228.3125 251.703125 228.703125 251.867188 C 229.09375 252.03125 229.5 252.15625 229.914062 252.238281 C 230.332031 252.324219 230.753906 252.367188 231.179688 252.367188 C 231.601562 252.371094 232.023438 252.328125 232.441406 252.25 C 232.859375 252.167969 233.265625 252.046875 233.65625 251.882812 C 234.050781 251.722656 234.425781 251.523438 234.777344 251.289062 C 235.132812 251.054688 235.460938 250.785156 235.761719 250.488281 C 236.792969 249.460938 237.800781 248.414062 238.777344 247.339844 C 239.757812 246.265625 240.710938 245.171875 241.636719 244.050781 C 242.5625 242.929688 243.460938 241.785156 244.332031 240.621094 C 245.199219 239.457031 246.039062 238.269531 246.851562 237.0625 C 247.660156 235.855469 248.441406 234.632812 249.191406 233.386719 C 249.945312 232.140625 250.664062 230.878906 251.351562 229.597656 C 252.039062 228.316406 252.695312 227.019531 253.320312 225.707031 C 253.945312 224.394531 254.535156 223.066406 255.09375 221.722656 C 255.652344 220.382812 256.179688 219.027344 256.671875 217.660156 C 257.164062 216.289062 257.621094 214.910156 258.042969 213.519531 C 258.46875 212.128906 258.859375 210.726562 259.210938 209.316406 C 259.566406 207.90625 259.886719 206.488281 260.171875 205.0625 C 260.457031 203.636719 260.707031 202.207031 260.921875 200.765625 C 261.136719 199.328125 261.3125 197.886719 261.457031 196.4375 C 261.601562 194.992188 261.707031 193.542969 261.78125 192.089844 C 261.851562 190.636719 261.886719 189.183594 261.886719 187.730469 C 261.886719 186.277344 261.851562 184.824219 261.78125 183.371094 C 261.707031 181.917969 261.601562 180.46875 261.457031 179.019531 C 261.3125 177.574219 261.136719 176.132812 260.921875 174.691406 C 260.707031 173.253906 260.457031 171.824219 260.171875 170.394531 C 259.886719 168.96875 259.566406 167.550781 259.210938 166.140625 C 258.859375 164.730469 258.46875 163.332031 258.042969 161.941406 C 257.621094 160.550781 257.164062 159.171875 256.671875 157.800781 C 256.179688 156.433594 255.652344 155.078125 255.09375 153.734375 C 254.535156 152.394531 253.945312 151.066406 253.320312 149.753906 C 252.695312 148.441406 252.039062 147.144531 251.351562 145.863281 C 250.664062 144.582031 249.945312 143.320312 249.191406 142.074219 C 248.441406 140.828125 247.660156 139.601562 246.851562 138.394531 C 246.039062 137.191406 245.199219 136.003906 244.332031 134.839844 C 243.460938 133.675781 242.5625 132.53125 241.636719 131.410156 C 240.710938 130.289062 239.757812 129.191406 238.777344 128.121094 C 237.800781 127.046875 236.792969 125.996094 235.761719 124.972656 Z M 235.761719 124.972656 " fill-opacity="1" fill-rule="nonzero"/></g><path fill="rgb(100%, 100%, 100%)" d="M 200.117188 160.398438 C 199.8125 160.101562 199.484375 159.832031 199.132812 159.597656 C 198.777344 159.363281 198.402344 159.164062 198.011719 159.003906 C 197.617188 158.839844 197.210938 158.71875 196.792969 158.636719 C 196.378906 158.554688 195.957031 158.515625 195.53125 158.519531 C 195.105469 158.519531 194.6875 158.5625 194.269531 158.648438 C 193.851562 158.730469 193.449219 158.855469 193.054688 159.019531 C 192.664062 159.183594 192.292969 159.386719 191.9375 159.621094 C 191.585938 159.859375 191.261719 160.128906 190.960938 160.433594 C 190.660156 160.734375 190.394531 161.0625 190.160156 161.417969 C 189.925781 161.769531 189.726562 162.144531 189.566406 162.539062 C 189.402344 162.933594 189.28125 163.339844 189.203125 163.757812 C 189.121094 164.171875 189.078125 164.59375 189.082031 165.019531 C 189.082031 165.445312 189.125 165.867188 189.210938 166.285156 C 189.292969 166.703125 189.417969 167.105469 189.582031 167.5 C 189.746094 167.890625 189.949219 168.265625 190.183594 168.617188 C 190.421875 168.96875 190.691406 169.296875 190.992188 169.597656 C 191.589844 170.1875 192.15625 170.808594 192.695312 171.457031 C 193.230469 172.105469 193.734375 172.78125 194.203125 173.476562 C 194.671875 174.175781 195.105469 174.894531 195.503906 175.636719 C 195.902344 176.378906 196.265625 177.136719 196.585938 177.914062 C 196.910156 178.691406 197.195312 179.480469 197.441406 180.285156 C 197.6875 181.09375 197.890625 181.90625 198.058594 182.734375 C 198.222656 183.558594 198.347656 184.390625 198.429688 185.226562 C 198.511719 186.066406 198.554688 186.90625 198.554688 187.746094 C 198.554688 188.589844 198.511719 189.425781 198.429688 190.265625 C 198.347656 191.101562 198.222656 191.933594 198.058594 192.761719 C 197.890625 193.585938 197.6875 194.402344 197.441406 195.207031 C 197.195312 196.011719 196.910156 196.800781 196.585938 197.578125 C 196.265625 198.355469 195.902344 199.113281 195.503906 199.855469 C 195.105469 200.597656 194.671875 201.316406 194.203125 202.015625 C 193.734375 202.714844 193.230469 203.386719 192.695312 204.035156 C 192.15625 204.683594 191.589844 205.304688 190.992188 205.894531 C 190.691406 206.195312 190.421875 206.523438 190.183594 206.875 C 189.945312 207.226562 189.746094 207.601562 189.582031 207.992188 C 189.417969 208.386719 189.292969 208.792969 189.207031 209.207031 C 189.125 209.625 189.082031 210.046875 189.078125 210.472656 C 189.078125 210.898438 189.117188 211.320312 189.199219 211.738281 C 189.28125 212.15625 189.402344 212.5625 189.5625 212.953125 C 189.722656 213.347656 189.921875 213.722656 190.15625 214.078125 C 190.390625 214.433594 190.660156 214.761719 190.957031 215.0625 C 191.257812 215.363281 191.585938 215.632812 191.9375 215.871094 C 192.289062 216.109375 192.664062 216.3125 193.054688 216.476562 C 193.445312 216.640625 193.851562 216.765625 194.269531 216.847656 C 194.683594 216.933594 195.105469 216.976562 195.53125 216.976562 C 195.957031 216.976562 196.378906 216.9375 196.792969 216.855469 C 197.210938 216.773438 197.617188 216.652344 198.011719 216.492188 C 198.402344 216.328125 198.777344 216.132812 199.132812 215.894531 C 199.484375 215.660156 199.8125 215.394531 200.117188 215.09375 C 201.015625 214.199219 201.867188 213.265625 202.675781 212.289062 C 203.484375 211.3125 204.242188 210.296875 204.949219 209.246094 C 205.65625 208.191406 206.308594 207.109375 206.910156 205.992188 C 207.511719 204.875 208.054688 203.730469 208.542969 202.558594 C 209.027344 201.390625 209.457031 200.199219 209.828125 198.984375 C 210.195312 197.773438 210.507812 196.542969 210.753906 195.300781 C 211.003906 194.054688 211.191406 192.804688 211.316406 191.542969 C 211.441406 190.28125 211.503906 189.015625 211.503906 187.746094 C 211.503906 186.476562 211.441406 185.214844 211.316406 183.949219 C 211.191406 182.6875 211.003906 181.4375 210.753906 180.191406 C 210.507812 178.949219 210.195312 177.722656 209.828125 176.507812 C 209.457031 175.292969 209.027344 174.101562 208.542969 172.933594 C 208.054688 171.761719 207.511719 170.617188 206.910156 169.5 C 206.308594 168.386719 205.65625 167.300781 204.949219 166.25 C 204.242188 165.195312 203.484375 164.179688 202.675781 163.203125 C 201.867188 162.226562 201.015625 161.292969 200.117188 160.398438 Z M 200.117188 160.398438 " fill-opacity="1" fill-rule="nonzero"/></svg>