<?xml version="1.0" encoding="utf-8"?>
<!-- Generator: Adobe Illustrator 25.0.0, SVG Export Plug-In . SVG Version: 6.00 Build 0)  -->
<svg version="1.1"
	 id="svg3" inkscape:version="1.0 (4035a4fb49, 2020-05-01)" sodipodi:docname="ultrasecreto.svg" xmlns:cc="http://creativecommons.org/ns#" xmlns:dc="http://purl.org/dc/elements/1.1/" xmlns:inkscape="http://www.inkscape.org/namespaces/inkscape" xmlns:rdf="http://www.w3.org/1999/02/22-rdf-syntax-ns#" xmlns:sodipodi="http://sodipodi.sourceforge.net/DTD/sodipodi-0.dtd" xmlns:svg="http://www.w3.org/2000/svg"
	 xmlns="http://www.w3.org/2000/svg" xmlns:xlink="http://www.w3.org/1999/xlink" x="0px" y="0px" viewBox="0 0 522.8 95.5"
	 style="enable-background:new 0 0 522.8 95.5;" xml:space="preserve">
<style type="text/css">
	.st0{fill:#FFA502;}
</style>
<sodipodi:namedview  bordercolor="#666666" borderopacity="1" gridtolerance="10" guidetolerance="10" id="namedview5" inkscape:current-layer="svg3" inkscape:cx="195.52613" inkscape:cy="-25.076779" inkscape:pageopacity="0" inkscape:pageshadow="2" inkscape:window-height="705" inkscape:window-maximized="1" inkscape:window-width="1366" inkscape:window-x="-8" inkscape:window-y="-8" inkscape:zoom="1.1160822" objecttolerance="10" pagecolor="#ffffff" showgrid="false">
	</sodipodi:namedview>
<path id="ultrasecreto" class="st0" d="M0.2,27.7v0.2l0.7,1.3L0.8,31v0.3l0.4,0.5c0.4,0,0.8-0.4,1.3-1.2h0.3L3,30.7l-0.3,0.7L3,32
	v0.2l-1-0.1c-1.2,0.4-1.8,0.7-1.7,1.1v0.2L1,35c3.5-0.1,6.9-0.5,10.3-1.2l0.2,0.6l3.1-0.3l13-0.4c2.7,0,5.5-0.6,8-1.7h0.2l-0.3,1
	v0.2l1-0.2l8.7-0.3h0.3c1.7-0.1,3.2-0.7,4.5-1.7l-0.9-1.3l1.1-0.4c0.5,0.5,1.1,0.8,1.8,0.7l-0.1,0.8l0.1,1.1l0.3,0.3h0.5
	c0.7,0,1.4-0.2,2.1-0.4l1,0.3v-0.2l0.2-0.2V31c-0.1-1.2-0.3-1.8-0.7-1.8c0.5-0.7,0.6-1.6,0.5-2.5l-0.4-1.6l-0.8,0.2L49,27.1h-0.3
	l0.3-1c0-0.5-5.7-0.6-17.1-0.3L28.5,26c-5.9,0.2-11.7,1-17.5,2.2l0.6-0.9V27L0.2,27.7z M12.9,29.2l2.6-1.4c0,0.5,0.2,1.1,0.6,1.4V30
	h-0.7l-1.6,0.6l-0.9-1.1L12.9,29.2z M26.2,29.1l0.3-0.3H27c0.9,0,1.7,0.3,2.5,0.7l-0.3,0.7l0.3,0.3l0.8-0.2V31l-0.8,0.2h-0.8v0.3
	h-0.5L26.2,29.1z M9.9,30.7l1.5-0.2v0.7c-0.3,0.6-0.8,0.9-1.4,0.9l0.1-0.8L9.9,30.7z M42.6,35.3c-0.6,0-1.2,0.3-1.4,0.9v0.2l1.8-0.1
	c0.8,0,1.3,0.1,1.5,0.6L44,37.6v0.2c0.1,1,0.9,1.5,2.6,1.7l1.1-0.4c-0.1-1.1-0.4-2.1-1-3.1L46,36.1L42.6,35.3z M13,37.1
	c-2.1,0.1-3.2,1.5-3.4,4.3v0.3l0.6-0.5h0.3v0.3c-0.4,0-0.8,0.3-0.9,0.7c0,0.2,0.3,0.3,1,0.3v0.2c0,0.1-0.5,0.4-1.4,0.7v0.2
	c0.8,0,1.5,0.2,2.2,0.5c1.7,1.9,2.7,2.8,2.9,2.8h0.3c0.5-0.6,1.2-1,1.9-1.2V46c-0.1,1.3-0.5,2-1.4,2l-0.7-0.1
	c-1.5-0.2-2.6-1.5-2.5-3L10.4,45c-0.4,0-0.7,0.1-1,0.4c-0.2,0.3-0.3,0.6-0.3,1c0.7,0.7,1.2,1.7,1.3,2.7c-0.7,0.5-1.1,1.3-1,2.2
	l0.1,2.1c0,0.3,0.7,0.5,2.2,0.4l1.3-0.1c1.2-0.1,2.3-0.3,3.4-0.7c-0.6,1-1.7,1.5-2.9,1.5h-0.2c-1.2,0-2.5-0.2-3.6-0.6L9.8,54
	l0.2,1.5l0.4,11.3c0.4,3.6,0.9,5.4,1.3,5.4l1.3-0.4c0,0.5,0.2,1,0.6,1.4c1.5,0.2,2.3,0.5,2.3,0.9v0.5L15.5,75l-2.3-0.4
	c-0.4,0.1-0.6,0.3-0.6,0.5v0.2c1.2,2.5,1.9,3.7,2.3,3.7h0.3c0.6-0.6,1.4-1,2.2-1.1h0.5l6.1,0.5l1-0.2l0.7,0.9v0.3l-0.2,0.2L25,79.3
	c-2.8-0.3-4.1-0.6-4.2-0.9l-1.6,0.4l-1,0.1l-1.8-0.2l-0.9,0.9c3.2,3.6,7.8,5.2,13.6,4.9c3-0.3,4.7-0.6,5.2-0.9
	c2.6,0,5.2-0.6,7.6-1.7c5.7-2.9,8.2-10,7.8-21.1L49.4,55c-0.1-1.2-0.5-1.8-1.4-1.7c0.8-0.9,1.2-2.1,1-3.3c-0.1-1.3-0.3-2.6-0.7-3.9
	l-1,0.1v0.2l0.5,0.6v0.2L46,47.3L45.7,47c0.1-0.4,1-1,2.5-1.8V45L48,44.8l0.7-2.3L48.3,42h-0.2l-0.2,0.2c0,0.3-0.1,0.5-0.3,0.5h-0.3
	c-0.5-0.2-0.8-0.6-1-1.1v-0.3l1.5,0.4c0.2,0,0.4-0.5,0.6-1.3c0-0.4-0.9-0.6-2.5-0.5l-3.4,0.3c-0.3,0-0.5,0.1-0.5,0.4v0.2
	c0,0.2,0.5,0.5,1.4,0.9L43,42.1l-2.5-1.4l0.5-0.2l-0.9-0.9l0.3-0.3c0,0.5,0.2,0.8,0.4,0.8h0.5c0.4,0,1-0.5,1.6-1.6l-0.3-0.3l-1.6,0
	c-1.4,0.3-2.1,0.6-2.1,0.9l0.1,2.1c0,0.2,0.2,0.3,0.7,0.3c1.6,1,2.7,1.5,3.4,1.5h0.2c0.2,0,0.4-0.3,0.4-1h0.2c0,0.4,0.4,0.8,1.1,1.3
	l-4,1.3l-1.7-0.2l-0.2,0.2l0.1,4.4c0.1,1.7,0.5,2.9,1.3,3.5h-0.2c-0.3,0-0.6,0.1-0.8,0.3s-0.3,0.6-0.2,0.9l0.4,1
	c1,0.9,1.6,1.5,1.6,2.1V57l-0.2,0.2L40,56.7h-0.2l-0.2,0.2l0.4,2.3v8.7l0.1,2l0.2,1v0.2l-0.8-0.3c-0.2,0-0.4,0.8-0.5,2.3
	c0.1,0.4,0.2,0.8,0.6,1.1c-2.8,0.5-4.2,1.1-4.2,1.7v0.2c1.6,0.1,3.1,0.3,4.6,0.7V77c-0.8,0-1.4,0.2-1.6,0.6L37.6,77
	c-0.8,0.2-1.6,0.5-2.3,0.9v-0.2c0-0.2,0.4-0.4,1.1-0.7v-0.2c-0.7-0.1-1.3-0.4-1.8-0.7h-0.5v0.3c0.4,0,0.7,0.2,0.7,0.5v0.5l-0.5,0.2
	l-0.5-0.1v-0.2l0.2-0.2v-0.7l-0.2-0.2l-1.6,0.2c-5.2,0.3-8.7-0.8-10.4-3.2l-1.5-4c-0.6,0.1-1.1,0.5-1.4,0.9h-0.2v-0.3
	c0.1-0.4,0.6-0.7,1.4-0.7l-0.3-5.4c0-0.7-0.2-1.4-0.4-2.1c0.2,0,0.3-0.4,0.3-1.2v-0.7c-0.1-1-0.7-1.9-1.4-2.5
	c1.1-0.1,1.6-1.1,1.5-3.2l-0.7-4.6l0.1-1L19,48.2c-0.7,0.1-1.5,0.4-2.1,0.8l-0.3-0.3c0-0.7,0.5-1.4,1.7-2.1l1,0.1
	c0.3-0.9,0.4-1.9,0.3-2.8L19.4,43c-0.9-4.1-3-6.1-6.2-5.9H13z M40.9,36.6c-0.7,0-1.3,0.4-1.6,1.1v0.5h0.3c0.7,0.1,1.3-0.3,1.6-0.9
	v-0.2L40.9,36.6z M41,48.1c0-0.8,0.6-1.3,1.9-1.7c0.8,0,1.3,0.1,1.5,0.6c-0.8,0-1.1,0.3-1.1,0.7v0.2l-1-0.3
	c-0.3,0.3-0.7,0.5-1.1,0.6L41,48.1z M45.5,49.3c0.3-0.6,0.9-0.9,1.6-0.9l0.8,0.1v0.3L47.8,49l-0.3-0.3c-0.3,0.4-0.8,0.6-1.3,0.7
	h-0.5L45.5,49.3z M10.5,58.7h0.3c1-0.1,2,0.4,2.4,1.4l-0.1,1h-0.8C11.4,60.6,10.7,59.7,10.5,58.7z M46.2,60.1h0.2l0.2-0.2l1.6-0.1
	l0.2,0.2c-0.1,0.3-0.3,0.6-0.6,0.7C46.8,60.8,46.3,60.6,46.2,60.1L46.2,60.1z M18.8,62.4h0.3v0.2h-0.3V62.4z M3.9,88.3l-0.2,0.2
	L3.9,95v0.2l0.3,0.3L38,93.7c1.2-1.4,2-2.1,2.4-2.1c0.6,0.1,0.8,0.3,0.8,0.4l-2.1,1.3v0.3l20-1L58.9,91l0.1-5.1
	c0-0.3-0.1-0.5-0.4-0.5l-14.4,0.8l0.4,1.3L44,88.4v0.3h0.7l1.5,0.4v0.5l0.4,1.5v0.2c-2,0.2-4,0-5.9-0.5v-0.3
	c1.6-0.8,2.4-1.6,2.3-2.3V88l-2.2,0v-0.3c1.2-0.2,1.8-0.6,1.7-1.2h-0.2l-0.2-0.2l-29.5,1.5L12.5,88c0,0.5-0.1,0.8-0.3,0.8L12.1,89
	c0-0.8-0.8-1.1-2.4-1l-5.1,0.4L3.9,88.3z M12,93.6l0.5-0.2l1.7,0.4c0,0.2-0.3,0.5-0.8,0.7L12,94V93.6z M44.2,25.4l-0.3,0.3l0.3,6.6
	l0.3,0.3L93.7,30c0.3,0,0.5-0.8,0.5-2.3l-0.4-4.6l-0.3-0.3L44.2,25.4z M70.8,27.8l1.3-0.6c0,0.5,0.5,0.8,1.4,1.1v0.2
	c-1.3,0.1-2,0.4-1.9,0.9h-0.5l0.1-1.2L70.8,27.8z M57.2,35.1l-1.5,0.4c-2.2,1.4-3.2,4.7-2.9,9.8l0.1,1.6l1.2,13.2l0.3,12.5
	c0.5,5.2,1,7.8,1.4,7.8c0.8,1.5,2.8,2.2,6.2,2l1.1-0.1l9.5-0.8l6.7-0.2l5.6-0.6c2.4-0.1,3.6-1.2,3.4-3.1l-0.1-1
	c-0.6-2.3-1.5-3.4-2.6-3.3c-0.3,0.3-0.7,0.5-1.1,0.6h-0.3l-1-0.9L79,73.6L64.3,74l-1.1-21.6L63,52.2c-0.5,0-0.8-0.1-0.8-0.3L62,51.7
	l-0.1-2l-0.4-1H62l0.2,0.2c0,0.3,0.1,0.5,0.4,0.5h0.3l0.2-0.2l-0.2-7.5c-0.1-1.7-0.4-3.4-1.1-5c-0.6-1.2-1.8-1.7-3.5-1.6L57.2,35.1z
	 M96.7,83.4L47.2,86L47,86.2c0.2,1.4,0.4,2.2,0.8,2.4c-0.4,0.5-0.6,1.1-0.6,1.7l0.1,2.6l0.3,0.3l49.3-2.6l0.3-0.3l-0.3-6.6
	L96.7,83.4z M102.5,22.2l-21.8,1.1l-0.2,0.2l0.4,3.9v3.1l0.2,0.2l0.2-0.2l7.7-0.2l2.6-0.3v-0.3c-0.7-0.2-1-0.4-1-0.6v-0.5
	c1.7,0.3,2.7,0.8,3.2,1.5l1.1-0.2l20-1l20-0.9v-0.2l0.2-0.2l-0.4-6.9l-1.3,0.4l-4.6-0.3H128c-0.6,0-1.1,0.2-1.6,0.6l0.6,1.3V23
	c-0.6,0-1.3-0.6-2.1-1.9l-11.6,0.4c-1.1,0-2.3,0.4-3.2,1c-0.5-0.5-1.3-0.8-2-0.7l-1.1,0.1c-2.4,0.5-3.6,1-3.5,1.5h-0.2
	C102.9,22.6,102.8,22.2,102.5,22.2z M90.6,24.1l1.5,0.3v0.2l-0.6,1h-0.3c-0.2,0-0.4-0.3-0.5-1L90.6,24.1z M83.2,26.5l1.5-0.4
	l0.1,1.1l-1.1,0.1L83.2,27V26.5z M119.5,26.1l1.7-1.4l0.4,0.8c-0.4,0.6-1.1,0.9-1.8,0.9L119.5,26.1z M123.6,26.7l2.1-0.8l0.1,1.1
	h-0.7l-1.8-0.2c-0.3,0-0.5,0.4-0.4,1h-0.3l-0.2-0.2l0.3-1.2l0.8,0.1L123.6,26.7z M100.3,29.2c0.5-0.8,1-1.2,1.4-1.2l0.7,0.3
	c0,0.5-0.4,0.8-1.4,0.9L100.3,29.2z M116.7,31.6l-5.1,0.4l-2.1,0.1l-2,0.3v-0.2H107c0.1,1-0.5,1.5-1.6,1.7l-0.4-0.8l-3.2,1.8h-0.2
	l0.1-0.5c0-0.3-0.5-0.7-1.4-1.2l0.3-0.5v-0.2l-0.2,0.2L94.2,33c-1.5,0.1-3,0.4-4.4,0.9c-0.8,0.6-1.2,1.7-1.1,3.3v0.7
	c0.1,0.5,0.2,0.8,0.4,0.8c0.1,1.3,2,2,5.9,2l2.1-0.1c3.8-0.2,6,0,6.8,0.5l0.7,16.7c0.2,2.4,0.6,4.7,1.2,7c-0.4,1.1-0.6,2.3-0.6,3.5
	c0.1,1.3,0.7,2.4,1.6,3.2h-0.7c-0.7,0-1,0.5-0.9,1.4l0.1,1c0.2,3.1,1.9,5.1,5.2,5.8h0.7c1.2-0.2,2.3-0.9,3-2l-0.3-0.3h-0.8l-2.1,0.9
	h-0.2l0.6-0.9c0-0.2-0.3-0.4-0.8-0.4v-0.2h0.5l3.6,0.1c0.5,0,0.8-0.9,0.7-2.5c-0.1-0.6-0.4-1.2-0.7-1.8c0.3,0,0.5-0.1,0.5-0.4
	l-0.1-2l-0.2-0.2l-1.5,0.4c-0.4,0-0.8-0.2-1-0.6v-0.2h0.2l0.2,0.2h0.2l2.1-0.8l-1.8-29l0.2,0.2l3.4-0.7c1-0.1,1.6-0.8,1.7-2.4
	c1.3,0.6,2.6,1,4,1.1v0.2c-0.8,0-1.3,0.3-1.4,0.7v0.2l0.3,0.3l1.1-0.1c2.2-0.2,3.3-0.5,3.2-1v-0.2l-1,0.1l-1.1,0.2v-0.2h-0.3v-0.3
	l0.8-0.2l2.5,0.5c1.1-0.9,1.7-2.2,1.8-3.5v-0.5C128.4,32.2,124.4,31.2,116.7,31.6L116.7,31.6z M110.6,35.2c-0.1-1.1,1-2,3.3-2.8
	c-0.8,2.7-1.8,4-2.9,4.1h-0.5v-0.2l0.5-0.2L110.6,35.2z M105.7,35.6c0-0.2,0.3-0.4,0.8-0.5l1.8,0.4c0,0.5-0.4,0.8-1.4,0.9h-0.3
	l0.1-0.8L105.7,35.6z M122,36.4c0.4-0.7,1.1-1.1,1.9-1.2l0.5,0.1c-0.7,0.9-1.3,1.4-1.7,1.4L122,36.4z M98.7,39.5
	c0.4-1.2,1.1-1.9,2-1.9c0.5,0.2,0.8,0.4,0.9,0.6v0.3l-1,0.1C100.1,39.1,99.5,39.4,98.7,39.5L98.7,39.5z M107.4,40.3
	c0.8,0,1.2,0.3,1.2,0.9l-0.3,0.8l0.2,0.2c1.9,0.2,2.8,0.5,2.8,1l-0.3,0.3c-0.9-0.8-2.1-1.1-3.3-1L108,42l-0.6-1.6L107.4,40.3z
	 M107.3,44.6h0.2l2.9,1.2c0,0.2-0.3,0.5-0.8,0.7l-1.8-0.2l0.1-0.8v-0.3c0-0.2-0.2-0.3-0.5-0.3L107.3,44.6z M107.7,48.4l2.3,0.7v0.2
	l-1.6,0.4h-0.2v-0.2h0.3v-0.3c0-0.3-0.4-0.5-1-0.4v-0.2L107.7,48.4z M108.5,50.8h0.5l2.9,1.2v0.7l-0.2,0.2l-1.3-0.3l-0.3,0.3
	c-0.9-0.3-1.5-1-1.6-1.9V50.8z M107.8,62.2h0.8c0.7,0.8,1.1,1.3,1.4,1.2l-0.5,0.5c-0.7,0-1.4-0.2-2-0.6L107.8,62.2z M110.6,65.5
	l1.6,0.1l-0.3,0.7l-1.6-0.1L110.6,65.5z M107.1,68.4l0.5-0.5l2.8-0.1v0.5c-1.3,0.1-2,0.4-1.9,0.9C108.2,68.7,107.7,68.4,107.1,68.4
	L107.1,68.4z M101.5,83l-17.2,1.1c-0.3,0-0.5,0.1-0.5,0.4l0.1,1.3c0,1.1,0.4,2.1,1.1,2.9c-0.7,0-1,0.2-1,0.5l0.1,1.8l0.3,0.3
	l1.5-0.1c6-0.3,10.8-0.7,14.6-1.1l4.4,0.1c0.2-1.1,0.4-1.7,0.6-1.7h0.3v0.2l-0.3,0.5v0.7l0.3,0.3l2-0.1c1.1-0.1,1.6-0.5,1.6-1.2
	c0.7,0.5,1.5,0.8,2.3,0.9c0.6,0,1.1-0.4,1.3-1.1l0.5,0.5l-0.3,0.5v0.2l24.6-1.3l0.3-0.3l-0.1-1c0-0.7-0.4-1.2-1.1-1.4l0.8-0.9
	l-0.2-1.6l0.1-1.6c-6.2,0-12.2,0.1-17.9,0.4c-3.8,0.1-7.6,0.6-11.3,1.4C106.2,83.1,103.8,83,101.5,83L101.5,83z M105.8,83.6
	c1.8,0.6,2.7,1,2.7,1.3v0.2h-0.2l-1.3-0.4l-0.5,0.5c-0.3,0-0.5-0.5-0.7-1.3V83.6z M100.3,86c0-0.4,0.5-0.8,1.6-1.2h0.2
	c-0.2,0.6-0.6,1.1-1.1,1.5h-0.2L100.3,86z M90.8,87H91l0.2,1.1v0.3h-0.5c-0.5-0.5-0.9-0.8-1.2-0.8v-0.2h0.2l0.7,0.1
	C90.7,87.7,90.8,87.5,90.8,87L90.8,87z M101.3,88.6l0.5-0.5h0.3c1.2-0.1,1.8,0.1,1.8,0.4v0.2c0,0.2-0.3,0.4-0.8,0.5
	C101.9,89.1,101.3,88.9,101.3,88.6z M123.6,20.9l-0.2,1.7h-0.3l-0.2-0.2c-0.2-0.9-0.3-1.3-0.6-1.3h-0.5l-0.2,0.2
	c0,0.9,0.2,1.8,0.5,2.6l1.8-0.6l0.7,0.6v0.2l-1.6,0.4l-1-0.1l0.2,3.8l10.8-0.4c1.6-0.2,2.5-0.7,2.7-1.5c0.2,0,0.6,0.4,1.1,1.3
	l1.5-0.2l24.6-1.1c3.5-0.2,7-0.7,10.4-1.4l0.5,0.8l3.1-0.3c0.5,0,0.8-0.6,0.7-1.8l-0.1-1.1c-0.9-2.9-2.2-4.3-4-4.2l-1.1,0.1
	c-0.9,0.2-1.8,0.6-2.6,1.1c0-0.4-0.9-0.6-2.7-0.7l-11.6,0.8c-0.9,1.4-1.6,2.1-2,2.1l0.4-2l-8.7,0.5L123.6,20.9z M159,23.5
	c0.1-0.7,0.2-1,0.4-1c0.6,0.7,1.2,1.1,1.7,1.1v0.3L161,24C160.3,24,159.6,23.9,159,23.5L159,23.5z M155,24.2l1.8,0.6l1.3-0.2l0.4,1
	l-0.3,0.3H158c0-0.7-0.2-1-0.4-1l-1.8,0.4H155V24.2z M143.6,29.6c-2.1,0.1-4.3,0.3-6.4,0.7c-3.5,0.2-5.3,2.3-5.6,6.2l0.1,1
	c0.1,0.8,0.4,1.6,0.9,2.3c-0.5,0.5-0.8,1.3-0.7,2c0.3,1.7,0.5,2.6,0.8,2.6c0.7-0.4,1.1-0.7,1.1-0.9c0-0.5-0.4-1-1.2-1.6v-0.5
	c0.6,0,1.1-0.2,1.6-0.6h0.2c0.1,1.1,0.6,1.6,1.6,1.6l-1.7,1.4V44l0.4,0.5L135,44h0.2l0.4,1.1v0.2l-3.1-0.5l-0.3,0.8l0.9,10.3
	l-0.1,1.2c1,0.1,1.5,0.2,1.5,0.4c-1,0.3-1.5,0.5-1.4,0.7l0.3,5.1l0.4,2.3c-0.2,0-0.4,0.6-0.4,1.7l0.4,1l0.6-0.2
	c1,0.2,1.5,0.4,1.5,0.7v0.5l-0.5,0.2l-1.5-0.4l-0.3,0.3v2.5c0.1,0.8,0.3,1.1,0.6,1.1c0.5-0.8,1.2-1.3,2.1-1.6l0.5,0.1v0.2l-2.9,1.6
	c0.1,2,0.8,3.4,2.2,4l1.3-1.1h0.2v0.5c-0.8,0.2-1.1,0.4-1.1,0.7c0,0.3,0.5,0.5,1.3,0.6l1.1-0.4c1-1,2.3-1.7,3.7-1.8
	c-0.1-0.8,0.2-1.6,0.9-2.2c0-0.3-0.5-0.4-1.5-0.4l-1.7-1.7h-0.2c0,0.4-0.2,0.6-0.8,0.9v-0.2l-0.2-0.2c0.7-0.6,1.6-1,2.6-1.3
	l-0.2-0.6c0.3-1,0.6-1.5,1.1-1.5l0.7,0.1h0.2v-0.8l-0.7-8l0.2-2.1c0-0.7,0.9-1,2.7-1.1c1.7,0,3.4,0.4,5,1.2c3.4,2,5.3,3,5.7,3v0.5
	h-0.2l-1-0.1H155l-0.2,0.2v0.3c3,3.7,4.6,5.7,4.6,6l2.1-0.8h0.5c-1.1,0.6-1.6,1.3-1.5,2.1v0.3c0,1.4,1,2.6,2.5,2.8l-0.1,0.7
	c0,0.7,0.8,1.3,2.2,2l-0.3,0.5c0,0.2,0.5,0.4,1.4,0.8l1.1-1.5h0.8l0.4,1.1l1.8-0.9c1.8-0.4,2.7-1,2.7-1.8v-0.2
	c-0.2-1.2-0.9-2.3-1.8-3.2v-0.2h0.5V69l-0.4-0.5c-1.5-0.2-2.3-0.4-2.3-0.7l0.9-1v-0.5l-0.2-0.5c-1.3-2.9-4.5-6.4-9.6-10.5
	c0.2-0.9,0.4-1.3,0.6-1.3h0.3l0.5,0.6c1-0.1,1.9-1.3,2.8-3.6l1.2,1.4h0.2c0.2,0,0.3-0.3,0.4-0.8c3-2.4,4.6-6.1,4.2-9.9l-0.1-1.1
	c-0.2-3.4-2.1-6.3-5.9-8.7C161.8,29.6,155,29,143.6,29.6z M157.6,33.3l2.2,0.7c-0.1,0.3-0.3,0.6-0.6,0.7c-0.5-0.4-1.2-0.7-1.8-0.7
	v-0.2L157.6,33.3z M159.4,36.1c2.1-0.5,3.4-1.1,3.9-1.5l1.1,2.6c-0.7,0.2-1.5,0.5-2.1,0.9c0-0.9-1-1.5-2.9-1.8V36.1z M141.4,37.7
	c3.7-0.6,5.5-1.2,5.5-1.8h0.2v0.7c6.5,0.3,10.4,0.9,11.8,1.7c0.1,1,0.8,1.8,2.1,2.4c-0.6,1.2-1,3.5-1.1,6.8v0.2l-0.8-0.1h-0.2
	l-2.1,1.1v0.5l1.3-0.1c0,0.2-0.3,0.5-0.8,0.7l-2.7-0.5l-0.3,0.3v0.2l0.5,0.5h0.2l-0.1,0.5V51l1.8-0.1l0.5,0.5v0.2l-1.5-0.3h-0.5
	l-0.3,0.3v0.3c0.1,0.2,0.4,0.4,0.9,0.6c0.6-0.1,1.2-0.4,1.6-0.9v0.5c0,0.8,0.6,1.1,1.7,1.1c-0.2,0.5-0.7,0.9-1.3,0.9h-2.5
	c-0.2-1.3-0.6-1.9-1.2-1.9c-0.3,0-0.5,0.1-0.5,0.4l0.1,1.6H153v0.5l0.3,0.3l0.8-0.7h0.3c0,0.7-0.5,1-1.3,1.1h-0.5
	c-0.4,0-0.8-0.9-1-2.9v-0.3h0.2l0.2,0.2h0.5c0.7-0.1,1.4-0.6,1.7-1.2c-0.9-0.9-2.2-1.3-3.5-1.1l-8.5,0.6H142
	c-0.2-1.2-0.6-2.4-1.2-3.6c0-0.2,0.3-0.4,0.8-0.5l-0.4-1l0.1-1.8c0-0.4-0.2-0.6-0.5-0.6c0.5-1.4,0.7-2.8,0.6-4.3L141.4,37.7z
	 M156.1,36.6l0.5-0.5h0.7c0.8,0,1.3,0.1,1.3,0.4l-0.5,0.2L156.1,36.6z M136.1,40.6c0.4-1.3,1.1-2,2-2.1h0.3c-0.8,0.9-1.3,2-1.3,3.2
	C136.7,41.6,136.4,41.3,136.1,40.6z M135.3,46.4c0-0.4,0.8-0.9,2.6-1.4h0.3c0.1,0.4,0.3,0.8,0.7,1.1l-3.3,0.3h-0.2l-0.2,0.2
	L135.3,46.4z M165.7,47.5c0.7-0.9,1.7-1.5,2.9-1.6h0.2v0.2l-0.2,0.2c-1.5,0.5-2.3,1-2.2,1.6v0.2l0.2,0.2h-0.2L165.7,47.5z
	 M134.8,49.2c0.1-0.5,0.3-0.8,0.6-0.9l1.3,0.1l-1.4,1.6C135.1,50,134.9,49.8,134.8,49.2z M137.9,59.8l1.3-0.1v0.7l0.4,1h-0.2
	l-0.2,0.2c-0.6-0.4-1.1-0.9-1.4-1.6L137.9,59.8z M133.8,65.4l0.3-0.3h0.2c0.2,0,0.5,0.3,0.7,0.8l-0.3,0.3L133.8,65.4z M137.8,72.6
	h0.2c0.5,0.2,0.8,0.6,0.9,1.1c0,0.5-0.1,0.9-0.4,1l-0.4-0.8l-1.6,0.6h-0.2v-0.7C137.3,73.8,137.8,73.3,137.8,72.6z M139.9,74.6
	c0.2-0.5,0.6-0.7,1.1-0.7h0.3l0.3,0.3V75h-0.2L139.9,74.6z M168.8,79l-20.9,2.1l-1.8-0.1v0.3l2,1l-0.3,0.3h-0.5l-1-0.9
	c-0.6,1.2-1.2,1.9-2,1.9v0.2L145,85l-0.9,2.5v0.2l12-0.3l6.2-0.3l11.5-0.9v-0.3h-0.3v-0.2l1.3-0.4h0.2l-0.3,0.8l0.3,0.3h0.3
	c0.8-0.2,1.5-0.7,2.1-1.3h0.3c0,0.8,0.6,1.1,1.7,1.1h0.8l0.3-0.3l-0.2-4.8l-0.3-0.3c-0.4,0.1-0.8,0.2-1.1,0.6h-0.2l-0.3-0.3v-0.2
	l0.2-0.2c1.2-0.4,1.8-0.7,1.8-0.9v-0.7l-0.3-0.3h-0.7c-0.4,0.5-0.9,0.9-1.6,1.1h-0.2v-0.2l0.2-0.2v-0.2c0-0.5-2-0.6-5.9-0.5
	L168.8,79z M140.8,80.8c-2.5,0.3-5,0.8-7.3,1.7v-0.2c0-0.2,0.5-0.5,1.6-0.7v-0.3l-10,0.5l-0.3,0.3v0.5l0.6,5.1l-0.1,1v0.2l0.2,0.2
	l0.6-0.2l5.9-0.1c1.1-0.2,1.6-0.6,1.6-1.1h0.2c0.9,0.7,2,1,3.2,1c1.7-0.2,3.3-0.8,4.7-1.7v0.5c0.7,0,1.5-0.3,1.9-0.9v-0.2l-0.2-0.2
	l-0.8,0.2l0.1-1.3v-0.3l-2-0.4l2.5-3.3l-0.3-0.3L140.8,80.8z M126.9,83.7c0-0.5,0.3-0.8,1.1-1c1.2,0,1.8,0.2,1.8,0.4L126.9,83.7
	L126.9,83.7z M137.6,84.3c0-0.2,0.3-0.3,0.8-0.4h0.2l-0.4,1.5c0.1,0.5,0.4,0.8,0.9,0.8v0.3l-1.1,0.2h-0.2v-0.8
	c0-0.3-0.4-0.5-1.2-0.4c0-0.2,0.4-0.4,1.1-0.7h0.2L137.6,84.3z M147.1,84.7l2-0.3c0.5,0,0.9,0.1,1,0.4c-0.6,0.7-1.5,1.1-2.4,1.3
	h-0.2L147.1,84.7z M166.3,18.7L166,19l0.4,7l0.2,0.2l28.7-1.8l28.2-1.1l0.3-1.2c-0.2-3.3-0.9-5.4-2.1-6.3L166.3,18.7z M221.3,19.2
	l1.3,0.1l-0.1,0.5l0.2,1.1v0.2h-0.3c-0.5-0.4-1.1-0.7-1.7-0.7h-0.3l-0.2,0.2v-0.2C221,19.9,221.3,19.5,221.3,19.2z M195.1,27.2
	l-1.8,0.3c-4.1,1.9-6,4.8-5.8,8.5v0.2c1.7,0.2,2.5,0.4,2.5,0.7l-2.6,0.1c-1.4,2.5-3.8,9.4-7.1,20.6c-3.3,8-4.9,12.7-4.8,14.2v0.7
	c1.1,2.8,2.9,4.1,5.3,4h0.5c1.4-0.1,2.5-1.1,3.4-3.1c1.2-5.5,2.3-8.6,3.3-9.2l5.1-0.3l12.5-0.5l0.8-0.2l0.6,2.1
	c2.5,6.3,5,9.4,7.6,9.3c1.9-0.2,3.5-1.2,4.5-2.9c0-0.4-0.6-1-1.7-1.7v-0.5h0.2l1,0.9l0.5-0.4c-0.2-1.8-0.8-3.5-1.7-5
	c-0.2-1.3-0.4-2-0.8-1.9h-0.2l-1.3,0.4v-0.2c0.7-0.7,1.1-1.2,1.1-1.5c-3.1-6-6.6-13.9-10.8-23.7c-2.5-7.4-5.8-11-9.9-10.8
	L195.1,27.2z M195.2,37.5h0.2c0.4,1.3,0.9,1.9,1.6,1.9l-0.1,0.8v0.5c0,0.8,0.6,1.5,1.8,2l0.1,1.8l0.4,1.9c2.7,5.9,4.1,9,4.1,9.5
	l-13.6,0.7l0.1-0.8c2-5.5,3-8.9,2.9-10.3l-0.1-1.5l-0.2-0.2c1.1-0.5,1.6-1,1.6-1.7v-0.2l-0.2-0.2l-0.9,0.9l0.3-1
	C193.9,41.7,194.6,40.3,195.2,37.5L195.2,37.5z M191.2,58.9c0.2-0.8,0.9-1.3,1.7-1.4h0.3c-0.6,0.5-0.9,1.1-0.9,1.8
	C191.9,59.4,191.5,59.2,191.2,58.9L191.2,58.9z M169.4,79.3l-0.3,0.3l0.3,5.2c0,0.7,0.2,1.4,0.6,1.9l1.8-0.4l9.8-0.4
	c1.3,0,2.5-0.4,3.6-1c1,0.4,2.1,0.6,3.2,0.7l1.5-0.1l2.4-0.5v-0.2c0-0.2-0.2-0.3-0.5-0.3V84l0.7,0.3l1.8-0.6h0.2
	c0.2,0,0.4,0.3,0.5,0.8l-0.2,0.2l-1.2-0.4l-0.3,0.3v0.3l0.2,0.2l23.8-0.9c6.3-0.3,9.5-0.7,9.5-1.2l-0.3-6.6l-0.3-0.3L169.4,79.3z
	 M229.5,15.5c-10.5,0.7-15.7,1.3-15.7,1.8l0.3,6.1l0.3,0.3l3.6-0.2c1.2,0,2.5-0.3,3.6-0.8c1.5,0.4,3,0.6,4.5,0.6l12.6-0.8h0.2
	c0.3-1.3,0.9-2,1.5-2.1l-0.9-0.8v-0.2l0.2-0.2l0.3,0.3c0.9-0.1,1.8,0.1,2.6,0.4l-0.4,1.5v0.2c0,0.4,1.6,0.6,4.6,0.4h0.8
	c2.8-0.1,4.2-0.4,4.2-0.9v-0.2l-0.6-1.6v-0.2l0.8,0.1h0.2l2.1-0.8v0.2l-1.1,1v0.2l0.2,0.2l1-0.4h0.2l-0.1,0.5c0,0.3,0.4,0.7,1.2,1.4
	l5.7-0.3c0.3-0.1,0.5-0.4,0.4-1l-0.1-2.6l-0.3-0.3l-1.9,0.8h-0.2l-0.3-0.3v-0.3l1.1-0.1c0.5,0,0.9-0.2,1-0.5l-2.4-1.5l1.5-0.1
	c0.6,0,1.1-0.4,1.3-0.9v-0.2l-0.2-0.2L229.5,15.5z M231.2,16.9c0-0.2,0.3-0.4,0.8-0.5l2.5,0.2h0.5v0.3c-0.8,0.6-1.8,1-2.9,1.1h-0.2
	l0.1-0.5v-0.2l-0.8,0.2L231.2,16.9z M247.9,18.2c0-0.2,0.2-0.3,0.6-0.5c0.6,0.2,1.2,0.5,1.5,1.1v0.3h-0.7l-1.5-0.6L247.9,18.2z
	 M244,19.1l0.9-1l1-0.1l0.2,0.2c-0.2,0.7-0.7,1.2-1.4,1.2H244V19.1z M229.2,19.7l0.5-0.5h0.3c0.5,0,0.9,0.1,1,0.4v0.5l-0.2,0.2
	l-1-0.4h-0.3l-0.2,0.2v-0.2L229.2,19.7z M245.5,20.4l0.6-0.7l1.1-0.1l1.3,0.3c-0.1,0.5-0.6,0.9-1.1,0.9l-2-0.2L245.5,20.4z
	 M236.4,25c-2,0.2-4,0.6-5.8,1.3c-6.4,3-9.5,7-9.2,12l0.1,1.1c0,2,0.6,4,1.8,5.7l1-0.4h0.2V45H224v0.3c0.9,1.2,1.9,2.3,3.1,3.1
	c1.8,1.2,4.8,2,8.8,2.3l5,1.9c5.6,0.6,8.5,2.7,8.7,6.3l-0.1,1.3c-0.6,3.6-3.7,5.6-9.2,5.9c-2.8,0.3-5.6-0.9-7.4-3.1
	c-2.6-5-4.6-7.5-6.1-7.4l-1.1,0.1c-2,0.1-3.4,1.6-4,4.5c0.3,1.2,0.6,1.8,0.9,1.8c0.3,1.5,0.7,2.9,1.4,4.2c3.6,5.1,9.2,7.4,16.6,7
	c2.7-0.2,5.4-0.8,8-1.9v-0.2l-0.2-0.2l-0.1-1.5c-0.1-1.2-0.6-1.8-1.6-1.7v-0.2L250,67h0.7c1.6,0,2.5,0.3,2.5,0.7
	c-1.5,0.1-2.3,0.8-2.2,2.3v0.2l0.2,0.2c0.5-0.1,1-0.3,1.4-0.7c0-0.2-0.2-0.3-0.5-0.3v-0.3h0.3l1-0.2c3.6-2.4,5.3-5.3,5.1-8.8
	l-0.4-1.9c0.5,0,0.8-0.2,0.8-0.5v-0.5l-0.7-0.6l0.2-1.8l-0.2-1.3c-1.3-3.4-2.7-5.1-4.4-5l-1,0.1v-0.2l0.3-0.5v-0.5
	c-6.8-2.8-12-4.1-15.6-3.9h-0.2v0.2l2.4,2.3v0.2h-0.8c-1.9,0-2.8-0.2-2.8-0.7l0.6-0.4L236,43c0-0.7-1.4-1.2-4-1.3l-2.8,0.3H229v-0.7
	l-0.2-0.8c0.7-0.1,1.3-0.5,1.7-1.1v-0.5c0-0.2-0.4-0.4-1.2-0.8c0.6-1.6,1.6-3.1,2.7-4.4l-0.2-1c0.2-0.8,0.7-1.4,1.4-1.9l-0.4-0.5
	l-0.1-1.1l0.2-0.2c0.3,0,0.8,0.2,1.4,0.8h0.2c0-0.9,0.5-1.7,1.4-1.9l0.7,0.1v0.3c-1.7,1.1-2.5,1.9-2.5,2.4l0.3,0.3h0.3
	c0.5-0.1,1-0.3,1.3-0.7h0.3v0.3l-0.2,0.2c-0.3,0-0.5,0.1-0.5,0.4c0.1,0.3,0.4,0.5,1,0.4l1-0.1c0.5,0,0.9-0.3,1.1-0.7l1,0.8
	c3.9,1,5.9,2.2,5.9,3.5l1.9-0.4c0.9,0,1.7,0.3,2.3,0.9h0.2l-0.2-0.8c0-0.3,0.1-0.5,0.3-0.5l0.7,0.5h0.2l1.5-0.2c0.7,0.2,1,0.4,1,0.6
	h-0.7l-1-0.1h-0.2l0.2,1.6c0,0.4-0.3,0.7-0.9,0.7h-0.2l-0.7-1.3h-0.2c-0.2,0-0.7,1-1.5,2.9v0.2l0.2,0.2l1.6-0.2l-0.3,1v0.2l1-0.1
	c2.6-0.1,4-1.7,4.2-4.8c-0.7-3.6-1.9-5.3-3.6-5.2c-0.2,0-0.3,0.3-0.3,0.8l-1.9,1.7c-0.3-0.3-0.7-0.4-1.2-0.4l-1.2,0.1
	c-0.6,0-1.1,0.2-1.6,0.6l-0.2-0.5c-1.3-0.3-2-0.9-2.1-1.9l-0.8,0.2l-1.5-0.3v-0.2l6.9-0.7l4.3,0.1v-0.3l-0.9-1.1c-3-2-5.3-3-6.9-2.9
	h-0.2l-0.2,0.2l0.4,0.8h-0.2C241.8,25.4,239.1,25,236.4,25L236.4,25z M238.8,26.2l0.3-0.3h0.2l1.7,0.4v0.3l-0.5,0.2l-1.7-0.3V26.2z
	 M241.1,27.2V27c2,0.2,3,0.5,3,0.8l-0.8,0.2l-1.6,0.1l-0.5,0.4l0.2,0.8v0.2h-0.2l-0.2-0.2h-0.2l-1,0.4v-0.3
	C240.6,28.9,241,28.1,241.1,27.2L241.1,27.2z M227.9,28.8c0.9-0.1,1.9,0.1,2.7,0.7l-2.1,1.1h-0.3v-0.2l0.6-0.2v-0.3
	c-0.3-0.5-0.7-0.8-1-0.8v-0.2L227.9,28.8z M237.3,28.6l0.5-0.2l1.3,0.1c-0.2,0.6-0.8,1-1.4,1.1H237v-0.2l0.6-0.2L237.3,28.6
	L237.3,28.6z M229.7,43.4c0.1-0.3,0.5-0.5,1.3-0.6h0.2c1.3,0.2,2.5,0.6,3.5,1.3c-1,1-2.3,1.6-3.7,1.7c-1.2,0.2-2.5-0.2-3.5-1
	l0.5-0.5l4.3,0.4l0.3-0.3v-0.5l-0.4-0.5c-0.7,0-1.4,0.2-2.1,0.4v-0.2h-0.3L229.7,43.4z M240.7,46.6l0.1-0.7c0-0.4,0.7-0.7,2.1-0.9
	l0.7,0.1v0.3l-0.5,0.5l-1.5,0.1c-0.3,0-0.4,0.2-0.5,0.7h-0.3L240.7,46.6z M238.6,47.2h0.2L239,47h0.3l2,0.2v0.2
	c0,0.3-0.4,0.6-1.3,0.7C239.3,48.2,238.7,47.8,238.6,47.2L238.6,47.2z M247.9,46.8l1.1-0.1v0.2l-0.2,0.2v0.2l0.2,0.2
	c0.5,0,0.8,0.1,0.8,0.3L250,48v0.7l-3.1,0.2l-0.1-1l1.1-0.4v-0.2l-0.2-0.2L247.9,46.8z M236.7,48.8v-0.2c1.8,0.4,2.7,0.7,2.7,1v0.5
	l-2.5,0.1l-1-0.3L236.7,48.8z M244.8,50.4c0.4-0.6,0.9-1,1.6-1.2l-0.1,0.8v0.7h-0.5L244.8,50.4z M250.7,49.2l0.3-0.3
	c0.4,0.4,0.9,0.7,1.5,0.7v0.2l-0.5,0.5l-1,0.1v-0.8L250.7,49.2z M247.6,49.7l0.3-0.3l1.6,0.1c0.1,0.7-0.3,1.3-0.9,1.5
	C248.3,51,248,50.6,247.6,49.7L247.6,49.7z M217.3,76.8l-0.3,0.3v0.5c0.1,1.6,0.3,3.3,0.6,4.9l-0.1,1.5l3.3-0.2
	c0.9-0.2,1.3-0.5,1.3-0.7c1.2,0.5,2.5,0.8,3.8,0.8l8.5-0.8l30.3-1.6l0.3-0.3l-0.4-6.7l-0.2-0.2l-7,0.5L217.3,76.8z M249,77.9
	c0-0.2,0.3-0.5,0.9-0.7h0.3v0.2c-0.4,0-0.6,0.1-0.6,0.4V78l0.2,0.2l1-0.5h0.3c-0.4,0.8-0.7,1.2-1.1,1.2h-0.3c0-0.4-0.3-0.6-0.7-0.6
	L249,77.9z M252.7,14.1l-0.3,0.3l0.1,2.3l0.2,1.5l-0.1,1.2l0.1,1.6c0,0.2,0.2,0.3,0.7,0.5l3.8-0.4l1.3,0.3l0.3-0.3v-0.3
	c-0.9-0.1-1.3-0.2-1.3-0.4l2.1-0.1l0.3-0.3c0-0.4-0.9-0.7-2.7-1c0-0.2,0.4-0.4,1.1-0.6c1.3,0.1,2,0.6,2,1.4l-0.8,1.2v0.2l3.3-0.2
	l0.2-0.2c-0.5-1-1.2-2-2-2.9l-4.3-0.8h-0.2c-0.3,1-0.5,1.5-0.7,1.5c0-0.7-0.2-1-0.5-1l-1.8,0.1c0.3-0.4,0.5-1,0.6-1.5h0.3l1.2,0.8
	l0.5-0.4l-1.2-0.8v-0.2l0.2-0.2l1.8,0.2h0.2c0.2,0,0.4-0.3,0.6-1c0.7,0.2,1.3,0.5,1.8,0.9c2,2.2,3.5,3.3,4.6,3.2h0.2l0.3-0.3
	l-1.2-1.1v-0.2l3.8-0.5h0.2L267,17l0.4,1.6l1-0.2h0.2c-0.3,0.4-0.6,0.8-0.6,1.3V20l0.4,0.5l0.2-0.2l4,0.3h0.7c0.1-1,0.2-1.5,0.4-1.5
	h0.2l0.5,0.3l1.3-0.4v0.2l0.2,0.2c0,0.2-0.2,0.3-0.6,0.5l0.3,0.3l1.5-0.1l0.3-0.3l-0.1-1.6l1.2,0.3h0.5c0.6-0.6,1.3-1,2.1-1.3h0.8
	v-0.5l-0.7-0.8v-0.2l1.1-0.2h0.2c0.7-0.1,1.4,0.4,1.7,1.1c-1.7,0.1-3.6,1.2-5.9,3.4v0.2h0.2l0.2-0.2l1.6-0.1l11-0.2h0.2
	c2.3-0.1,4.5-0.5,6.7-1.3c0.8,0.7,1.9,1.1,3,1l1.6-0.1l0.3-0.3l-0.3-5.2c0-0.7-0.2-1.4-0.6-1.9l-3.3,0.3l-1,0.1L283,12.8h-0.5
	c-3,0.1-6,0.7-8.8,1.8c0-0.6-0.7-1-1.9-1.2H271l-1,0.4l-4,2.3c-0.9-1-1.5-1.6-1.7-1.6l-0.3,0.8h-0.5l0.3-0.7l-1.4-0.8l-1,0.1
	l-1.3,1.2c0-0.7-1.2-1-3.5-1.1l-3.1,0.3L252.7,14.1z M260.8,14.5l0.5-0.2l1.8,0.7c0,0.8,0.4,1.1,1,1.1v0.2c-0.4,0.1-0.8,0.3-1.1,0.7
	h-0.3v-0.2C261.5,15.9,260.8,15.1,260.8,14.5L260.8,14.5z M270.5,14.5l0.8-0.5h0.3l1,0.9l-1.4,0.7l-0.7-0.9L270.5,14.5z M269.9,15.4
	l1.2,0.3v0.2l-0.5,0.2c0,0.2,0.2,0.3,0.5,0.3v0.3h-0.7c-0.4-0.1-0.7-0.4-0.9-0.8L269.9,15.4z M296.7,15.8c-0.1-1,0.5-1.6,1.7-1.9
	c0.2,0,0.4,0.3,0.5,0.8c0,0.3-0.7,0.6-2.1,1.1L296.7,15.8z M271.8,16.9c0.2-0.6,0.8-1,1.4-1.1h0.3c-0.4,0.5-0.6,1.2-0.7,1.8h-0.2
	c0-0.4-0.3-0.6-0.9-0.6L271.8,16.9z M266.1,19c-0.4,0.1-0.8,0.2-1.1,0.6l1.4,0.8h0.3L267,20v-0.5l-0.5-0.5H266.1z M288.3,22.8
	c-1.8,0.1-3.6,0.4-5.4,0.8v0.3l0.8,0.4l-0.3,0.3h-0.5c-0.8,0-1.5-0.5-1.7-1.2h-0.3c0,0.4-0.3,0.7-0.9,0.7c-0.9-0.4-1.9-0.6-2.8-0.7
	c-1.1,0.1-2.3,0.4-3.2,1c-1.9-0.4-3.8-0.6-5.8-0.5l-2.1,0.1c-2.8,0.1-4.6,1.3-5.4,3.6c0.1,0.4,0.3,0.6,0.5,0.6l1.5-0.1l0.2-0.2
	c0.7,0.3,1,0.7,1,0.9l-0.6,0.4l-1.8-0.6h-0.7l-0.3,0.3L262,30v0.5c-1,0.6-1.5,1.1-1.6,1.4l0.6,9.2l0.2,4.1l-0.1,2l1.2,0.4h0.2
	c1.9-2.5,3.2-3.8,3.9-3.8v-0.2l-0.9-0.8v-0.2c0.7,0,1-0.2,1-0.4c-0.2-0.4-0.6-0.6-1-0.6v-0.2h0.2c1.3,0.4,2,1.1,2.1,2.2v0.5
	c0,0.6-0.2,1.1-0.6,1.5l-1.8-0.6l-1,0.2c-0.5,2.1-1,3.2-1.5,3.2h-0.3l-1.2-0.1v0.2l-0.2,0.2l0.1,1l0.6,2.4l-0.2,1.8v0.2l2.3,0.2
	c1.5-0.2,3-0.6,4.4-1.2v-0.2l-0.3-0.3c0-0.6,0.3-1.1,0.7-1.5h0.5l1.2,0.9l0.6-0.7l-0.1-1.5l0.3-0.3l3.1-0.2l9.6-0.8l3.5,0.1v-0.2
	l-0.2-1c0-0.8,0.6-1.4,2-1.8h0.3c-0.9,1-1.4,1.8-1.4,2.4v0.2l0.3,0.3l1.8-0.1c2.8-0.1,4.2-1.3,4.1-3.5v-0.2c0-0.7-0.3-1.3-0.7-1.8
	c-1.4-1.5-3.8-2.1-7.2-1.9c-2.6,0.2-5.2,0.8-7.6,1.7V43c0.8,0,1.7,0.1,2.5,0.4v0.2h-0.3c-0.3,0.9-0.6,1.3-0.8,1.4H280l-0.2-0.2v-0.2
	l0.2-0.2v-0.3l-1.9-1.2l0.1-0.5v-0.2l-1.5,0.4c-1.6-0.4-3.2-0.7-4.8-0.7l-1,0.1l-0.2,0.2c-0.5,1.8-1.1,2.7-1.8,2.7h-0.2
	c0.8-1.4,1.2-2.9,1.4-4.5c-0.1-1.2-0.5-2.3-1.2-3.2c0.9,0,1.3-0.6,1.2-1.5l-0.5-3.9c0-0.8,0.9-1.2,2.7-1.3l7.6,0.1h0.3
	c1.3,0,2.5-0.5,3.6-1.2h0.2c0,0.2,0,0.4-0.1,0.5s-0.3,0.2-0.5,0.2v0.3l6.6-0.2c3.1-0.2,4.8-1.2,5.1-3.2v-0.2c-1,0.1-1.7-0.8-2.1-2.5
	V24h0.3l0.8,0.4l0.3-0.3v-0.2C294,23.2,291.9,22.7,288.3,22.8L288.3,22.8z M262.4,25.9c0.5-0.6,1.3-1,2.1-0.9l3,0.5v0.2l-0.8,0.2
	l-4.1,0.1L262.4,25.9z M280.1,24.7l2.2,0.5v0.2l-0.3,0.3l-2.2-0.4v-0.2L280.1,24.7z M275.1,27.4l0.8-0.2l1-0.1
	c0.3,0,0.5,0.2,0.5,0.8h0.3v-0.3h0.2v0.2c-0.4,0.6-1.1,1-1.9,1.1c-0.2-0.9-0.5-1.3-0.9-1.3V27.4z M263.6,31.1l1,0.1h0.2L265,31
	l0.2,1.5c-1-0.2-1.5-0.5-1.5-0.7L263.6,31.1z M266.8,47.2c0.6,0,1.8-0.7,3.5-2l0.8,0.4c0,0.2-0.4,0.4-1.3,0.6c0,0.5,0.3,0.9,0.7,1.1
	l1.3-0.1v0.3c0,0.2-0.3,0.5-0.8,0.7l-1.8-0.1H269l-0.2,0.2l0.4,0.8v0.2l-1.7-0.2v0.2l-0.2,0.2v0.8l-1.2-0.4v-2.5v-0.2H266.8z
	 M280.8,45.9l0.5-0.2l2.2,1h0.2c0,0.7-0.5,1.3-1.6,1.6h-0.2v-0.2l0.3-1.5c-0.2-0.4-0.6-0.6-1.3-0.6L280.8,45.9z M269.1,47
	c-0.8,0-1.6,0.4-2.1,1.1v0.3l1.3-0.1c0.5,0,0.9-0.2,1-0.5v-0.7L269.1,47z M270.1,53.3c-0.7,1-2.2,1.6-4.5,1.7l-1.6,0.1
	c-0.7,0.1-1.5,0-2.1-0.2v0.2l-0.2,0.2v0.8l0.9,0.8c-0.5,1.4-0.7,3-0.6,4.5l0.1,2.1c0.1,1.7,0.5,3.4,0.9,5c0.1,1.9,2.8,2.6,8.2,2.4
	l2.9-0.2c2.3-0.1,4.5-0.5,6.7-1.2c3.1,0.4,6.3,0.6,9.4,0.5l2.3-0.1c4.2-0.2,6.1-1.9,6-4.9l-0.2-0.8c-1.2-1.8-3.9-2.6-8.3-2.4
	l-4.9,0.3l-0.5,0.7V63l-2.6-0.2h-0.7c-0.8,0-1.3,0.3-1.4,0.7c-2.2-0.6-4.4-0.7-6.6-0.5c-1.2,0.1-2.3-0.7-2.6-1.8
	c0.6-0.5,0.9-1.9,0.8-4.3l-0.2-3.3l-0.3-0.3L270.1,53.3z M264.9,62c-0.1-1.9,0.7-2.8,2.5-2.9c-0.3,1.9-1.1,2.9-2.3,2.9H264.9z
	 M270.7,65.8l0.5-0.2l1.3,0.3c-0.9,1.7-1.5,2.5-1.8,2.6l-0.2-0.2l0.6-0.9l-0.1-1l-0.4-0.5L270.7,65.8z M289,67.3l0.8-0.2h0.7
	l0.1,1.2l0.4,0.5V69h-0.5C289.8,68.4,289.4,67.9,289,67.3L289,67.3z M303.4,72.1c-1.8,0.3-3.5,1-5,1.9h-0.2c0-0.2,0.3-0.4,1-0.5
	v-0.7L287,73.1c-3,0.2-6,0.6-9,1.1v0.3h0.5v0.3L278,75c-0.4-0.2-0.9-0.3-1.3-0.3v-0.2L277,74v-0.3l-0.2-0.2l-1.5,0.2l-2.1-0.1
	c-1.9,0.1-3.1,0.5-3.9,1.4h-0.2l-1.4-1.1h-0.3c0.1,1-1,1.5-3,1.6h-0.3c-0.2,0-0.4-0.4-0.7-1.1h0.2l-0.3-0.3l-7.4,0.4l-0.3,0.3
	l0.2,4.6c0,0.2,0.4,0.4,1.2,0.6c1.4-0.6,2.9-1,4.4-1.2h0.5c1.4-0.2,2.8,0.3,3.8,1.3c-1.5-0.3-3-0.4-4.5-0.4h-0.8
	c-1.5,0.1-3,0.6-4.4,1.4v0.3l8.1,0.1l20.8-1.3h0.2c0.5-0.9,1.5-1.5,2.5-1.6h0.2v0.3c-1.2,0.3-1.8,0.6-1.8,0.9V80l0.2,0.2h0.2
	l0.2-0.2l1.3-0.1l2.6,0.2h0.3c0.5,0,1-0.4,1.1-0.9l-0.4-0.6v-0.2c0.5-0.1,1.1-1,1.8-2.6c0.7,0.2,1.1,0.5,1.2,0.8v0.2l-1,0.2v0.3
	l0.8,0.1l5.2-0.3l1.6-0.2c0,0.9,0.6,1.3,1.5,1.2v0.5l-0.5,0.2c-0.5,0-1.2-0.4-2-1.4h-0.2l-0.2,0.2l-0.5,0.7h-0.5l-1-0.8
	c-0.2,0-0.3,0.3-0.3,0.8l-1.3,0.1l-0.6,0.5c0,0.6,3.3,0.7,9.9,0.5l0.3-0.5v-0.5l-0.7-4.1l0.3-1.3C305.1,72.5,304.3,72.1,303.4,72.1
	L303.4,72.1z M267.1,75.8l1.5-0.4h0.2l0.2,0.2l-0.8,0.7l0.6,1.4v0.2c-1.2-0.7-1.9-1.4-1.9-2L267.1,75.8z M283.6,77.1
	c0-0.3,0.3-0.5,1-0.5c0.1-0.7,0.2-1,0.4-1h0.3c1.1,0,1.7,0.3,1.7,0.9v0.2l-1.6,0.1l-1.8,0.6V77.1z M270.6,79.6
	c0-0.4,0.6-0.7,1.8-0.9h0.3l0.5,0.5v0.3L270.6,79.6z M273.7,79.7c0.1-0.4,0.5-0.8,0.9-0.7h1.4v0.2c-0.1,0.3-0.4,0.5-1,0.5H273.7z
	 M290.1,79.4l0.5-0.2h0.3l-0.5,0.5L290.1,79.4z M294.6,11.8c-2.2,0.4-3.2,0.7-3.2,1.2l0.3,0.3h0.2c0-0.3,0.1-0.5,0.3-0.5l1.1-0.1
	l-0.3,0.5v0.2l0.7,0.8l-1.3-0.3l-0.3,0.3c0,0.4-0.1,0.7-0.5,0.7v2.5c0.1,1.2,2,1.7,5.8,1.5l1.5-0.1c1.2,0,2.3-0.4,3.1-1.3l-0.3-0.3
	h-0.3l-3.1,0.7l-0.9-1.9c0.1-0.3,0.3-0.6,0.6-0.7c1.1,0.6,2.3,1,3.5,1l1.9-0.6v-0.3l-1.8,0.1l-0.3-0.3v-0.3l1.2,0.1l1-0.1l0.2-0.2
	l1.6,1.7v0.3l-1.2-0.8h-0.2l-0.2,0.2l0.2,0.5l-0.3,1.3c0.3,0.6,0.5,1,0.7,0.9l33.3-1.7c0.5-0.9,1.4-1.5,2.4-1.8h0.2l-0.1,0.5
	l0.5,0.5l-0.3,0.5V17l8.5-0.4l0.3-0.3l-0.4-6.7l-0.2-0.2l-2.6,0.3l-4.6,0.1l-2.5,0.1l-8.9,0.3l-4.4,0.4c-0.2,0-0.3,0.3-0.3,0.8
	l-1.4,2.4l-1,0.1c-0.5,0.1-1,0.3-1.4,0.7h-0.3l0.3-0.7l-0.4-0.6V13h0.2l0.2,0.2l1.5-0.1c0.6-0.3,0.9-0.6,0.9-1v-0.2l-0.2-0.2
	l-1.9,0.6h-0.2l-0.5-0.6c1.7-0.2,2.6-0.5,2.6-0.8v-0.2l-8.5,0.3l-3.6,0.2c-2.9,0-5.8,0.5-8.6,1.4c0-0.3-0.5-0.6-1.5-0.7l-1.1,0.1
	l-1.3,0.6c0-0.2-0.4-0.4-1.2-0.4h-0.2l-0.2,0.2l0.4,1v0.2H297C296,12.9,295.3,12.4,294.6,11.8L294.6,11.8z M303.9,12.6l1.1-0.1
	l0.1,1.8C304.3,14.3,303.9,13.8,303.9,12.6L303.9,12.6z M317.8,12.2l1.8-0.1c0,0.8,0.3,1.1,0.9,1.1c0,0.4-0.7,0.7-2.1,0.9
	C318.2,14.2,318,13.5,317.8,12.2L317.8,12.2z M307.9,14.7c0-0.4,0.6-0.7,1.8-0.9h0.2v0.5l-0.3,0.5l-0.7-0.1l-0.8,0.2L307.9,14.7z
	 M329.3,12.8l1-0.1l-0.3,1.2c0,0.3,0.4,0.5,1,0.4c0,0.3-0.5,0.5-1.6,0.7c-0.5,0.1-1-0.2-1.2-0.6v-0.3l0.5,0.3h0.2l0.5-0.5
	L329.3,12.8z M299.2,15l1.3-0.6h0.2v0.3c-0.2,0-0.4,0.1-0.5,0.2c-0.1,0.1-0.2,0.3-0.1,0.5h-0.5l-0.3-0.3L299.2,15z M308.4,15.3h0.5
	l0.9,0.8h0.2l0.2-0.2l0.2,0.5l-0.5,0.4h-0.2l-1.2-0.1L308.4,15.3z M293.6,17.1l2.4,1v0.2h-0.3c-1.3-0.3-2-0.6-2-1L293.6,17.1z
	 M305.1,17.5l1.1-0.4l2.5-0.1c0,0.3-0.6,0.5-1.8,0.6l-1.6,0.1l-0.2,0.2V17.5z M320.9,20.6c-3.7,0.1-7.2,1.3-10.2,3.5
	c-1,1.1-1.7,1.7-2.4,1.8c-2,1-3.7,3.2-5.1,6.7c-1.9,6.4-2.7,11.1-2.5,14.1c0.1,1.2,0.4,1.8,0.9,1.8l0.1,1c0.2,3.2,1.1,6.3,2.6,9.1
	c3,5.2,6.1,7.7,9.3,7.6v0.3l-1-0.3l-0.3,0.3v0.3c3.4,1.4,7.1,2.1,10.8,2.1l2.1-0.1c1.2,0,2.4-0.5,3.2-1.3l1.5,0.3l1-0.1
	c1.7-0.4,3.1-1.3,4.1-2.7v-0.3h-0.2l-0.8,0.2v-0.3l0.8-0.2l1.5-0.1l0.5-0.5v-0.3l-2,0.3h-0.2c0-0.4-0.2-0.8-0.6-1.1l1.1-0.1l3-1.6
	v-0.3l-2.3-0.5V60l0.3-0.3h0.3l1.4,0.8l0.6-0.4c0-0.7-0.5-1-1.4-1.1h-0.3l-2.3,0.4c-1.1-0.1-1.7-0.5-1.7-1.2l2.8-0.1v-0.5l-0.2-0.2
	l1,0.1c2,1.3,3.2,2,3.6,1.9v0.2c-0.9,0.2-1.3,0.3-1.3,0.6v0.2c0,0.2,0.5,0.4,1.3,0.6h0.2c1.8-3.3,2.6-6,2.5-8.2v-0.2
	c0-2.1-1.5-4-3.7-4.2v0.3c-0.6,1.3-1.1,2.6-1.4,4v0.5h-0.8c-0.6,0.1-1.2,0.5-1.6,1.1l-1-0.1L332,57v0.8l-0.6,0.2l0.2,1.1l-0.3,0.3
	c0-0.4-0.2-0.8-0.6-1.1l-0.5,0.5c-1,0.5-1.6,0.8-1.6,1.1v0.3c3.2,0.3,4.8,0.7,4.8,1.1v0.2h-0.2l-3.7,1.3l-1.8-0.4v-0.2h0.2l0.8,0.3
	l0.3-0.3c0-0.5,0.4-0.9,1.4-1.2c0-0.4-1.3-0.5-4-0.4c-1.6,0-3.1,0.5-4.4,1.4l-0.3-0.3l-1.5,0.1l-0.3-0.3c0.9,0,1.3-0.2,1.3-0.4v-0.2
	l-1.3-0.1l-1.3,0.6l-0.5-1c-2.3-1.3-3.6-2.3-3.8-3.1l-0.8,0.2h-0.3c-0.7,0.1-1.3-0.3-1.5-0.9c0.5,0,0.9-0.3,1.1-0.7v-0.5l-1.6-2.9
	l0.1-1.2h-0.7c-0.5,0.5-1.1,0.9-1.7,1.1h-0.2v-0.2l0.3-1l1.8-0.1L311,51l-0.4-0.8l0.3-0.8v-0.2l-0.2-0.2c-0.5,0-0.8-0.1-0.8-0.3
	c0.7,0,1-0.2,1-0.5v-0.3c-0.1-1-0.4-1.9-0.8-2.8c-1.1-0.2-1.7-0.5-1.7-0.7v-0.2h0.2l0.2,0.2h0.5c0.3-0.4,0.7-0.6,1.1-0.6l-0.1-1.3
	c0-0.9,0.1-1.9,0.3-2.8c1.6-4.1,2.4-6.8,2.4-7.8v-0.2h0.8c0.6,0,1.5-0.7,2.5-1.9c1.3-0.1,1.9-0.9,1.8-2.4l-0.4-1.1h0.2L318,26h0.3
	v0.2l-0.2,0.2v0.2c0.6,1.3,1,1.9,1.2,1.9h0.5l0.3-0.3l-0.6-1.6l0.3-0.3h0.5l0.5,0.5V27l-0.1,1.2h0.2l0.2,0.2h0.5
	c0.4-0.5,0.9-0.8,1.4-0.9v0.8l0.3,0.3h0.8c1.2,0,2.4,0.3,3.5,1c1,1.1,2.4,1.6,3.9,1.4v0.2l-0.2,0.2v0.8c0.1,1.3,0.9,2.4,2.6,3.5
	l-0.1,0.8v0.7c0.5,0.7,1.3,1.1,2.2,1l1.3-0.1c3-0.6,4.5-1.7,4.4-3.2v-0.7c0-0.5-0.7-1.5-2-2.9l0.4-1.7l-1.7-0.6l0.5-0.7v-0.2
	c-0.1-1-1.1-2-3.3-3.1c-0.1,1.1-0.3,1.7-0.6,1.7h-0.5v-0.2l0.5-2.3c-3.8-2.6-8.4-3.8-13-3.4L320.9,20.6z M318.8,24.3l1.2,0.3
	c0,0.3-0.4,0.7-1.1,1L318.8,24.3z M306.5,31.4l0.8-0.2h0.2l1.2,0.8h0.8l0.2-0.2c0,0.4-0.5,0.7-1.6,1.1c-1,0.1-1.5-0.4-1.5-1.2
	L306.5,31.4z M336.5,30l1-0.4h0.2l0.2,0.2c0.4,1.1,0.9,1.6,1.6,1.6l-0.6,0.5l-1-0.1h-0.7l-0.6-1.6L336.5,30z M332.3,31.5l1.1-0.4
	c0.8,0.2,1.2,0.4,1.2,0.6v0.7c-0.8,0.1-1.1,0.4-1.1,0.7h-0.2l-0.2-0.2l0.1-0.5v-0.2l-0.9-0.6V31.5z M337.4,32.7
	c0.3,0.3,0.7,0.4,1.2,0.4h0.3l1.6-0.6l0.1,1.1l-1.6,0.2c-0.6,0-1.2-0.2-1.7-0.6L337.4,32.7z M302.8,37c0-0.7,0.5-1.2,1.7-1.6v0.2
	h0.3v0.8l1.5,1.2c0,0.4,0.6,0.6,1.8,0.6v0.2c-1.3,0.5-1.9,1.3-1.9,2.2l-3.1,0.2v-0.2l0.8-1.4l-0.4-0.6v-0.2c1-0.3,1.4-0.6,1.4-0.9
	v-0.2l-0.3-0.3c-0.5,0.1-1,0.3-1.3,0.7H303L302.8,37z M307.2,41.4c0-0.7,0.4-1.2,1.2-1.5v0.2h0.3v0.2c-0.5,0.3-0.8,0.9-0.7,1.5
	l-0.8-0.1V41.4z M304.3,42.2h0.3c0.8,0.1,1.6,0.5,2.2,1l-0.5,0.2c-0.2-0.4-0.7-0.7-1.2-0.6h-0.3l-0.2,0.2L304.3,42.2z M303.3,45.8
	c0-0.4,1.2-0.8,3.7-1.2l-0.3,1.3l-0.8-0.3l-3.3,0.5c-0.3,0-0.5-0.1-0.5-0.3v-0.2h0.3L303.3,45.8z M302.3,48c0-0.2,0.1-0.3,0.5-0.4
	l0.2-0.2c1.3-0.1,2.1-0.2,2.3-0.4v0.3c-0.6,0.4-1.2,0.6-1.9,0.8h-0.2L302.3,48z M303.8,51.9l0.6-0.5c1.9-0.1,3.5,0.9,4.6,2.9h-0.2
	c-0.7-0.1-1.3-0.4-1.8-0.9c-0.6,0.8-1.4,1.3-2.4,1.4l-0.9-0.8v-0.2l1,0.4h0.2l0.3-0.3v-0.3C304.3,52.9,303.8,52.3,303.8,51.9
	L303.8,51.9z M335.1,50.6l-0.5,0.5v0.2l0.5,0.5h0.2l1.5-0.4v-0.2l-1-0.6H335.1z M303.4,54.7l0.7,0.1c0,0.2-0.3,0.4-0.8,0.5
	L303.4,54.7L303.4,54.7z M305.8,55.4h0.3l1,0.4V56l-0.2,0.2v0.5c0,0.3,0.8,0.4,2.5,0.4v0.2c-1.3,0.3-2.6,0.8-3.7,1.5h-0.2l0.3-0.5
	l-0.9-0.8v-0.3c0.7,0,1-0.2,1-0.4v-0.2L305.8,55.4z M313.9,59.7c0.4,0,0.8,0.7,1.3,2.2l2.3-0.3l1.2,0.1v0.2l-1.1,0.4l-3.8-0.3h-0.2
	v-0.2L313.9,59.7z M322.5,63.2h0.5c0.7,0.7,1.6,1.1,2.5,1.2c-0.6,1.2-1.2,1.9-1.7,1.9c-0.2-1-0.6-2-1.3-2.7V63.2z M327.8,65.3
	c0-0.8,0.5-1.3,1.7-1.6h0.2c0,0.8-0.5,1.4-1.6,1.7h-0.2L327.8,65.3z M326.1,66l1.6,0.1l0.6-0.2h0.2c-0.1,0.3-0.3,0.6-0.6,0.7
	l-1.8-0.1h-0.2v-0.3L326.1,66z M327.9,70.8l-0.6,0.2c-11.5,0.8-17.2,1.4-17.2,1.9c-0.9-0.6-2.1-0.9-3.2-0.8l-7.8,1.4
	c-1.4-0.1-2.8-0.3-4.1-0.8V73l0.2,0.2c-0.5,1.8-0.7,3.6-0.7,5.5v0.5c0,0.5,0.3,0.9,0.7,1.1l2.8-0.1l36.2-2.4l4.1,0.1h0.3l0.5-0.5
	l1.3,0.4h0.8c0.4-0.2,0.6-0.5,0.6-0.9c0.6,0.6,1.5,0.9,2.3,0.9l1.3-0.1l5.5-0.8h0.5c0.4,0,0.5-0.7,0.5-2.2c-0.1-1.2-0.3-1.8-0.6-1.8
	l0.4-1.3l-0.2-1.5h-0.3l-2.3-0.2c-0.4,0.1-0.6,0.3-0.6,0.5v0.5l0.2,0.2l1.3-0.4h0.2l-0.4,1.2l0.7,0.9V73l-0.2-0.2
	c-2-0.2-3-0.4-3-0.7v-0.2l0.2-0.2l1.2,0.1h0.5l0.2-0.2c0-0.2-0.5-0.4-1.3-0.6l0.1-1v-0.2l-0.2-0.2c-1.1,0.1-1.6,0.6-1.6,1.6
	c-1.3-0.8-2.8-1.2-4.3-1.1h-0.5c-0.8,0-1.5,0.4-1.9,1.1c-1-0.7-2.1-1-3.3-1H336l-5.6,0.6H327.9z M316.6,74.5c0-0.7,0.4-1.3,1.4-1.6
	l0.4,1c-0.3,0.3-0.7,0.5-1.1,0.6H316.6z M334.7,74.1l1.5,0.4v0.2c-0.4,0.8-1.2,1.4-2.1,1.4v-0.3l0.8-1l-0.3-0.3v-0.2L334.7,74.1z
	 M345,75.7c0.1-0.6,0.2-0.8,0.4-0.8h0.7c0.3,0.1,0.6,0.4,0.9,1.1l-0.3,0.3h-0.3C345.8,76.3,345.3,76,345,75.7z M319.9,76.7v-0.2
	l2.6,0.4h0.3c0.5,0,1-0.2,1.4-0.6V77c-1.8,0.3-2.8,0.6-2.7,1C320.9,77.9,320.3,77.5,319.9,76.7L319.9,76.7z M336.3,9.8l-0.2,1.7
	h-0.3l-0.2-0.2c-0.2-0.9-0.3-1.3-0.6-1.3h-0.5l-0.2,0.2c0,0.9,0.2,1.8,0.5,2.6l1.8-0.6l0.7,0.6V13l-1.6,0.4l-1-0.1l0.2,3.8l10.8-0.4
	c1.6-0.2,2.5-0.7,2.7-1.5c0.2,0,0.6,0.4,1.1,1.3l1.5-0.2l24.6-1.1c3.5-0.2,7-0.7,10.4-1.4l0.5,0.8l3.1-0.3c0.5,0,0.8-0.6,0.7-1.8
	l-0.1-1.1c-0.9-2.9-2.2-4.3-4-4.2L385.1,7c-0.9,0.2-1.8,0.6-2.6,1.1c0-0.4-0.9-0.6-2.7-0.7l-11.6,0.8c-0.9,1.4-1.6,2.1-2,2.1l0.4-2
	l-8.7,0.5L336.3,9.8z M371.7,12.3c0.1-0.7,0.2-1,0.4-1c0.6,0.7,1.2,1.1,1.7,1.1v0.3l-0.2,0.2C373,12.9,372.3,12.7,371.7,12.3
	L371.7,12.3z M367.7,13.1l1.8,0.6l1.3-0.2l0.4,1l-0.3,0.3h-0.2c0-0.7-0.2-1-0.4-1l-1.8,0.4h-0.8V13.1z M356.3,18.4
	c-2.1,0.1-4.3,0.3-6.4,0.7c-3.5,0.2-5.3,2.3-5.6,6.2l0.1,1c0.1,0.8,0.4,1.6,0.9,2.3c-0.5,0.5-0.8,1.3-0.7,2c0.3,1.7,0.5,2.6,0.8,2.6
	c0.7-0.4,1.1-0.7,1.1-0.9c0-0.5-0.4-1-1.2-1.6v-0.5c0.6,0,1.1-0.2,1.6-0.6h0.2c0.1,1.1,0.6,1.6,1.6,1.6l-1.7,1.4v0.2l0.4,0.5
	l0.5-0.4h0.2l0.4,1.1v0.2l-3.1-0.5l-0.3,0.8l0.9,10.3l-0.1,1.2c1,0.1,1.5,0.2,1.5,0.4c-1,0.3-1.5,0.5-1.4,0.7l0.3,5.1l0.4,2.3
	c-0.2,0-0.4,0.6-0.4,1.7l0.4,1l0.6-0.2c1,0.2,1.5,0.4,1.5,0.7v0.5l-0.5,0.2l-1.5-0.4l-0.3,0.3v2.5c0.1,0.8,0.3,1.1,0.6,1.1
	c0.5-0.8,1.2-1.3,2.1-1.6l0.5,0.1v0.2l-2.9,1.6c0.1,2,0.8,3.4,2.2,4l1.3-1.1h0.2v0.5c-0.8,0.2-1.1,0.4-1.1,0.7
	c0,0.3,0.5,0.5,1.3,0.6l1.1-0.4c1-1,2.3-1.7,3.7-1.8c-0.1-0.8,0.2-1.6,0.9-2.2c0-0.3-0.5-0.4-1.5-0.4l-1.7-1.7H353
	c0,0.4-0.2,0.6-0.8,0.9v-0.2l-0.2-0.2c0.7-0.6,1.6-1,2.6-1.3L354,59c0.3-1,0.6-1.5,1.1-1.5l0.7,0.1h0.2v-0.8l-0.7-8l0.2-2.1
	c0-0.7,0.9-1,2.7-1.1c1.7,0,3.4,0.4,5,1.2c3.4,2,5.3,3,5.7,3v0.5h-0.2l-1-0.1h-0.2l-0.2,0.2v0.3c3,3.7,4.6,5.7,4.6,6l2.1-0.8h0.5
	c-1.1,0.6-1.6,1.3-1.5,2.1v0.3c0,1.4,1,2.6,2.5,2.8l-0.1,0.7c0,0.7,0.8,1.3,2.2,2l-0.3,0.5c0,0.2,0.5,0.4,1.4,0.8l1.1-1.5h0.8
	l0.4,1.1l1.8-0.9c1.8-0.4,2.7-1,2.7-1.8v-0.2c-0.2-1.2-0.9-2.3-1.8-3.2v-0.2h0.5v-0.5l-0.4-0.5c-1.5-0.2-2.3-0.4-2.3-0.7l0.9-1v-0.5
	l-0.2-0.5c-1.3-2.9-4.5-6.4-9.6-10.5c0.2-0.9,0.4-1.3,0.6-1.3h0.3l0.5,0.6c1-0.1,1.9-1.3,2.8-3.6l1.2,1.4h0.2c0.2,0,0.3-0.3,0.4-0.8
	c3-2.4,4.6-6.1,4.2-9.9l-0.1-1.2c-0.2-3.4-2.1-6.3-5.9-8.7C374.5,18.5,367.7,17.8,356.3,18.4z M370.3,22.1l2.2,0.7
	c-0.1,0.3-0.3,0.6-0.6,0.7c-0.5-0.4-1.2-0.7-1.8-0.7v-0.2L370.3,22.1z M372.1,25c2.1-0.5,3.4-1.1,3.9-1.5l1.1,2.6
	c-0.7,0.2-1.5,0.5-2.1,0.9c0-0.9-1-1.5-2.9-1.8V25z M354.1,26.6c3.7-0.6,5.5-1.2,5.5-1.8h0.2v0.7c6.5,0.3,10.4,0.9,11.8,1.7
	c0.1,1,0.8,1.8,2.1,2.4c-0.6,1.2-1,3.5-1.1,6.8v0.2l-0.8-0.1h-0.2l-2.1,1.1v0.5l1.3-0.1c0,0.2-0.3,0.5-0.8,0.7l-2.7-0.5l-0.3,0.3
	v0.2l0.5,0.5h0.2l-0.1,0.5v0.2l1.8-0.1l0.5,0.5v0.2l-1.5-0.3h-0.5l-0.3,0.3v0.3c0.1,0.2,0.4,0.4,0.9,0.6c0.6-0.1,1.2-0.4,1.6-0.9V41
	c0,0.8,0.6,1.1,1.7,1.1c-0.2,0.5-0.7,0.9-1.3,0.9H368c-0.2-1.3-0.6-1.9-1.2-1.9c-0.3,0-0.5,0.1-0.5,0.4l0.1,1.6h-0.7v0.5l0.3,0.3
	l0.8-0.7h0.3c0,0.7-0.5,1-1.3,1.1h-0.5c-0.4,0-0.8-0.9-1-2.9v-0.3h0.2l0.2,0.2h0.5c0.7-0.1,1.4-0.6,1.7-1.2
	c-0.9-0.9-2.2-1.3-3.5-1.1l-8.5,0.6h-0.2c-0.2-1.2-0.6-2.4-1.2-3.6c0-0.2,0.3-0.4,0.8-0.5l-0.4-1l0.1-1.8c0-0.4-0.2-0.6-0.5-0.6
	c0.5-1.4,0.7-2.8,0.6-4.3V26.6z M368.8,25.5l0.5-0.5h0.7c0.8,0,1.3,0.1,1.3,0.4l-0.5,0.2L368.8,25.5z M348.8,29.5
	c0.4-1.3,1.1-2,2-2.1h0.3c-0.8,0.9-1.3,2-1.3,3.2C349.4,30.5,349.1,30.1,348.8,29.5z M348,35.3c0-0.4,0.8-0.9,2.6-1.4h0.3
	c0.1,0.4,0.3,0.8,0.7,1.1l-3.3,0.3h-0.2l-0.2,0.2L348,35.3z M378.4,36.3c0.7-0.9,1.7-1.5,2.9-1.6h0.2v0.2l-0.2,0.2
	c-1.5,0.5-2.3,1-2.2,1.6v0.2l0.2,0.2h-0.2L378.4,36.3z M347.5,38.1c0.1-0.5,0.3-0.8,0.6-0.9l1.3,0.1l-1.4,1.6
	C347.8,38.9,347.6,38.6,347.5,38.1L347.5,38.1z M350.6,48.6l1.3-0.1v0.7l0.4,1h-0.2l-0.2,0.2c-0.6-0.4-1.1-0.9-1.4-1.6L350.6,48.6z
	 M346.5,54.2l0.3-0.3h0.2c0.2,0,0.5,0.3,0.7,0.8l-0.3,0.3L346.5,54.2z M350.5,61.4h0.2c0.5,0.2,0.8,0.6,0.9,1.1c0,0.5-0.1,0.9-0.4,1
	l-0.4-0.8l-1.6,0.6H349v-0.7C350,62.6,350.5,62.2,350.5,61.4L350.5,61.4z M352.6,63.5c0.2-0.5,0.6-0.7,1.1-0.7h0.3l0.3,0.3v0.8h-0.2
	L352.6,63.5z M381.5,67.9L360.6,70l-1.8-0.1v0.3l2,1l-0.3,0.3H360l-1-0.9c-0.6,1.2-1.2,1.9-2,1.9v0.2l0.7,1.1l-0.9,2.5v0.2l12-0.3
	l6.2-0.3l11.5-0.9v-0.3h-0.3v-0.2l1.3-0.4h0.2l-0.3,0.8l0.3,0.3h0.3c0.8-0.2,1.5-0.7,2.1-1.3h0.3c0,0.8,0.6,1.1,1.7,1.1h0.8l0.3-0.3
	l-0.2-4.8l-0.3-0.3c-0.4,0.1-0.8,0.2-1.1,0.6h-0.2l-0.3-0.3v-0.2l0.2-0.2c1.2-0.4,1.8-0.7,1.8-0.9v-0.7l-0.3-0.3h-0.7
	c-0.4,0.5-0.9,0.9-1.6,1.1h-0.2v-0.2l0.2-0.2v-0.2c0-0.5-2-0.6-5.9-0.5L381.5,67.9z M353.5,69.6c-2.5,0.3-5,0.8-7.3,1.7v-0.2
	c0-0.2,0.5-0.5,1.6-0.7v-0.3l-10,0.5l-0.3,0.3v0.5l0.6,5.1l-0.1,1v0.2l0.2,0.2l0.6-0.2l5.9-0.1c1.1-0.2,1.6-0.6,1.6-1.1h0.2
	c0.9,0.7,2,1,3.2,1c1.7-0.2,3.3-0.8,4.7-1.7v0.5c0.7,0,1.5-0.3,1.9-0.9v-0.2l-0.2-0.2l-0.8,0.2l0.1-1.3v-0.3l-2-0.4l2.5-3.3
	l-0.3-0.3L353.5,69.6z M339.6,72.5c0-0.5,0.3-0.8,1.1-1c1.2,0,1.8,0.2,1.8,0.4l-2.8,0.6H339.6z M350.3,73.1c0-0.2,0.3-0.3,0.8-0.4
	h0.2l-0.4,1.5c0.1,0.5,0.4,0.8,0.9,0.8v0.3l-1.1,0.2h-0.2v-0.8c0-0.3-0.4-0.5-1.2-0.4c0-0.2,0.4-0.4,1.1-0.7h0.2L350.3,73.1z
	 M359.8,73.6l2-0.3c0.5,0,0.9,0.1,1,0.4c-0.6,0.7-1.5,1.1-2.4,1.3h-0.2L359.8,73.6z M378.6,7.6l-0.3,0.3l0.1,2.3l0.2,1.5l-0.1,1.2
	l0.1,1.6c0,0.2,0.2,0.3,0.7,0.5l3.8-0.4l1.3,0.3l0.3-0.3v-0.3c-0.9-0.1-1.3-0.2-1.3-0.4l2.1-0.1l0.3-0.3c0-0.4-0.9-0.7-2.7-1
	c0-0.2,0.4-0.4,1.1-0.6c1.3,0.1,2,0.6,2,1.4l-0.8,1.2v0.2l3.3-0.2l0.2-0.2c-0.5-1-1.2-2-2-2.9l-4.3-0.8h-0.2c-0.3,1-0.5,1.5-0.7,1.5
	c0-0.7-0.2-1-0.5-1l-1.8,0.1c0.3-0.4,0.5-1,0.6-1.5h0.3l1.2,0.8L382,10l-1.2-0.8V9l0.2-0.2l1.8,0.2h0.2c0.2,0,0.4-0.3,0.6-1
	c0.7,0.2,1.3,0.5,1.8,0.9c2,2.2,3.5,3.3,4.6,3.2h0.2l0.3-0.3l-1.2-1.1v-0.2l3.8-0.5h0.2l-0.3,0.3l0.4,1.6l1-0.2h0.2
	c-0.3,0.4-0.6,0.8-0.6,1.3v0.3l0.4,0.5l0.2-0.2l4,0.3h0.7c0.1-1,0.2-1.5,0.4-1.5h0.2l0.5,0.3l1.3-0.4v0.2l0.2,0.2
	c0,0.2-0.2,0.3-0.6,0.5l0.3,0.3l1.5-0.1l0.3-0.3l-0.1-1.6l1.2,0.3h0.5c0.6-0.6,1.3-1,2.1-1.3h0.8V10l-0.7-0.8V9l1.1-0.2h0.2
	c0.7-0.1,1.4,0.4,1.7,1.1c-1.7,0.1-3.6,1.2-5.9,3.4v0.2h0.2l0.2-0.2l1.6-0.1l11-0.2h0.2c2.3-0.1,4.5-0.5,6.7-1.3
	c0.8,0.7,1.9,1.1,3,1l1.6-0.1l0.3-0.3l-0.3-5.2c0-0.7-0.2-1.4-0.6-1.9l-3.3,0.3l-1,0.1L409,6.1h-0.5c-3,0.1-6,0.7-8.8,1.8
	c0-0.6-0.7-1-1.9-1.2H397l-1,0.4l-4,2.3c-0.9-1-1.5-1.6-1.7-1.6L390,8.6h-0.5l0.3-0.7L388.1,7l-1,0.1l-1.3,1.2c0-0.7-1.2-1-3.5-1.1
	l-3.1,0.3L378.6,7.6z M386.6,7.9l0.5-0.2l1.8,0.7c0,0.8,0.4,1.1,1,1.1v0.2c-0.4,0.1-0.8,0.3-1.1,0.7h-0.3v-0.2
	C387.3,9.3,386.6,8.5,386.6,7.9L386.6,7.9z M396.3,7.9l0.8-0.5h0.3l1,0.9L397,9l-0.7-0.9V7.9z M395.7,8.8l1.2,0.3v0.2l-0.5,0.2
	c0,0.2,0.2,0.3,0.5,0.3v0.3h-0.7c-0.4-0.1-0.7-0.4-0.9-0.8L395.7,8.8z M422.5,9.2c-0.1-1,0.5-1.6,1.7-1.9c0.2,0,0.4,0.3,0.5,0.8
	c0,0.3-0.7,0.6-2.1,1.1H422.5z M397.6,10.3c0.2-0.6,0.8-1,1.4-1.1h0.3c-0.4,0.5-0.6,1.2-0.7,1.8h-0.2c0-0.4-0.3-0.6-0.9-0.6
	L397.6,10.3z M392,12.4c-0.4,0.1-0.8,0.2-1.1,0.6l1.4,0.8h0.3l0.3-0.3V13l-0.5-0.5L392,12.4z M414.2,16.2c-1.8,0.1-3.6,0.4-5.4,0.8
	v0.3l0.8,0.4l-0.3,0.3h-0.5c-0.8,0-1.5-0.5-1.7-1.2h-0.3c0,0.4-0.3,0.7-0.9,0.7c-0.9-0.4-1.9-0.6-2.8-0.7c-1.1,0.1-2.3,0.4-3.2,1
	c-1.9-0.4-3.8-0.6-5.8-0.5l-2.1,0.1c-2.8,0.1-4.6,1.3-5.4,3.6c0.1,0.4,0.3,0.6,0.5,0.6l1.5-0.1l0.2-0.2c0.7,0.3,1,0.7,1,0.9
	l-0.6,0.4l-1.8-0.6h-0.7l-0.3,0.3l1.5,1.1v0.5c-1,0.6-1.5,1.1-1.6,1.4l0.6,9.2l0.2,4.1l-0.1,2l1.2,0.4h0.2c1.9-2.5,3.2-3.8,3.9-3.8
	V37l-0.9-0.8V36c0.7,0,1-0.2,1-0.4c-0.2-0.4-0.6-0.6-1-0.6v-0.2h0.2c1.3,0.4,2,1.1,2.1,2.2v0.5c0,0.6-0.2,1.1-0.6,1.5l-1.8-0.6
	l-1,0.2c-0.5,2.1-1,3.2-1.5,3.2h-0.3l-1.2-0.1v0.2l-0.2,0.2l0.1,1l0.6,2.4l-0.2,1.8v0.2l2.3,0.2c1.5-0.2,3-0.6,4.4-1.2v-0.2L394,46
	c0-0.6,0.3-1.1,0.7-1.5h0.5l1.2,0.9l0.6-0.7l-0.1-1.5l0.3-0.3l3.1-0.2l9.6-0.8l3.5,0.1v-0.2l-0.2-1c0-0.8,0.6-1.4,2-1.8h0.3
	c-0.9,1-1.4,1.8-1.4,2.4v0.2l0.3,0.3l1.8-0.1c2.8-0.1,4.2-1.3,4.1-3.5v-0.2c0-0.7-0.3-1.3-0.7-1.8c-1.4-1.5-3.8-2.1-7.2-1.9
	c-2.6,0.2-5.2,0.8-7.6,1.7v0.3c0.8,0,1.7,0.1,2.5,0.4V37H407c-0.3,0.9-0.6,1.3-0.8,1.4h-0.3l-0.2-0.2V38l0.2-0.2v-0.3l-1.9-1.2
	l0.1-0.5v-0.2l-1.5,0.4c-1.6-0.4-3.2-0.7-4.8-0.7l-1,0.1l-0.2,0.2c-0.5,1.8-1.1,2.7-1.8,2.7h-0.2c0.8-1.4,1.2-2.9,1.4-4.5
	c-0.1-1.2-0.5-2.3-1.2-3.2c0.9,0,1.3-0.6,1.2-1.5l-0.5-3.9c0-0.8,0.9-1.2,2.7-1.3l7.6,0.1h0.3c1.3,0,2.5-0.5,3.6-1.2h0.2
	c0,0.2,0,0.4-0.1,0.5s-0.3,0.2-0.5,0.2v0.3l6.6-0.2c3.1-0.2,4.8-1.2,5.1-3.2v-0.2c-1,0.1-1.7-0.8-2.1-2.5v-0.3h0.3l0.8,0.4l0.3-0.3
	v-0.2C419.9,16.6,417.7,16.2,414.2,16.2L414.2,16.2z M388.2,19.4c0.5-0.6,1.3-1,2.1-0.9l3,0.5v0.2l-0.8,0.2l-4.1,0.1L388.2,19.4z
	 M405.9,18.1l2.2,0.5v0.2l-0.3,0.3l-2.2-0.4v-0.2L405.9,18.1z M400.9,20.8l0.8-0.2l1-0.1c0.3,0,0.5,0.2,0.5,0.8h0.3V21h0.2v0.2
	c-0.4,0.6-1.1,1-1.9,1.1c-0.2-0.9-0.5-1.3-0.9-1.3V20.8z M389.5,24.6l1,0.1h0.2l0.2-0.2L391,26c-1-0.2-1.5-0.5-1.5-0.7V24.6z
	 M392.6,40.7c0.6,0,1.8-0.7,3.5-2l0.8,0.4c0,0.2-0.4,0.4-1.3,0.6c0,0.5,0.3,0.9,0.7,1.1l1.3-0.1V41c0,0.2-0.3,0.5-0.8,0.7l-1.8-0.1
	h-0.2l-0.2,0.2l0.4,0.8v0.2l-1.7-0.2v0.2l-0.2,0.2v0.8l-1.2-0.4v-2.5v-0.2H392.6z M406.7,39.3l0.5-0.2l2.2,1h0.2
	c0,0.7-0.5,1.3-1.6,1.6h-0.2v-0.2L408,40c-0.2-0.4-0.6-0.6-1.3-0.6V39.3z M394.9,40.4c-0.8,0-1.6,0.4-2.1,1.1v0.3l1.3-0.1
	c0.5,0,0.9-0.2,1-0.5v-0.7L394.9,40.4z M395.9,46.7c-0.7,1-2.2,1.6-4.5,1.7l-1.6,0.1c-0.7,0.1-1.5,0-2.1-0.2v0.2l-0.2,0.2v0.8
	l0.9,0.8c-0.5,1.4-0.7,3-0.6,4.5l0.1,2.1c0.1,1.7,0.5,3.4,0.9,5c0.1,1.9,2.8,2.6,8.2,2.4l2.9-0.2c2.3-0.1,4.5-0.5,6.7-1.2
	c3.1,0.4,6.3,0.6,9.4,0.5l2.3-0.1c4.2-0.2,6.1-1.9,6-4.9l-0.2-0.8c-1.2-1.8-3.9-2.6-8.3-2.4l-4.9,0.3l-0.5,0.7v0.2l-2.6-0.2h-0.7
	c-0.8,0-1.3,0.3-1.4,0.7c-2.2-0.6-4.4-0.7-6.6-0.5c-1.2,0.1-2.3-0.7-2.6-1.8c0.6-0.5,0.9-1.9,0.8-4.3l-0.2-3.3l-0.3-0.3H395.9z
	 M390.8,55.4c-0.1-1.9,0.7-2.8,2.5-2.9c-0.3,1.9-1.1,2.9-2.3,2.9H390.8z M396.5,59.2L397,59l1.3,0.3c-0.9,1.7-1.5,2.5-1.8,2.6
	l-0.2-0.2l0.6-0.9l-0.1-1l-0.4-0.5L396.5,59.2z M414.9,60.7l0.8-0.2h0.7l0.1,1.2l0.4,0.5v0.2h-0.5C415.7,61.8,415.2,61.3,414.9,60.7
	L414.9,60.7z M429.2,65.5c-1.8,0.3-3.5,1-5,1.9H424c0-0.2,0.3-0.4,1-0.5v-0.7l-12.1,0.3c-3,0.2-6,0.6-9,1.1v0.3h0.5v0.3l-0.5,0.2
	c-0.4-0.2-0.9-0.3-1.3-0.3v-0.2l0.3-0.5v-0.3l-0.2-0.2l-1.5,0.2l-2.1-0.1c-1.9,0.1-3.1,0.5-3.9,1.4H395l-1.4-1.1h-0.3
	c0.1,1-1,1.5-3,1.6H390c-0.2,0-0.4-0.4-0.7-1.1h0.2l-0.3-0.3l-7.4,0.4l-0.3,0.3l0.2,4.6c0,0.2,0.4,0.4,1.2,0.6
	c1.4-0.6,2.9-1,4.4-1.2h0.5c1.4-0.2,2.8,0.3,3.8,1.3c-1.5-0.3-3-0.4-4.5-0.4h-0.8c-1.5,0.1-3,0.6-4.4,1.4v0.3l8.1,0.1l20.8-1.3h0.2
	c0.5-0.9,1.5-1.5,2.5-1.6h0.2v0.3c-1.2,0.3-1.8,0.6-1.8,0.9v0.2l0.2,0.2h0.2l0.2-0.2l1.3-0.1l2.6,0.2h0.3c0.5,0,1-0.4,1.1-0.9
	l-0.4-0.6v-0.2c0.5-0.1,1.1-1,1.8-2.6c0.7,0.2,1.1,0.5,1.2,0.8v0.2l-1,0.2v0.3l0.8,0.1l5.2-0.3l1.6-0.2c0,0.9,0.6,1.3,1.5,1.2V72
	l-0.5,0.2c-0.5,0-1.2-0.4-2-1.4h-0.2l-0.2,0.2l-0.5,0.7h-0.5l-1-0.8c-0.2,0-0.3,0.3-0.3,0.8l-1.3,0.1l-0.6,0.5
	c0,0.6,3.3,0.7,9.9,0.5l0.3-0.5v-0.5l-0.7-4.1l0.3-1.3C431,65.9,430.1,65.5,429.2,65.5L429.2,65.5z M393,69.2l1.5-0.4h0.2l0.2,0.2
	l-0.8,0.7l0.6,1.4v0.2c-1.2-0.7-1.9-1.4-1.9-2L393,69.2z M409.5,70.5c0-0.3,0.3-0.5,1-0.5c0.1-0.7,0.2-1,0.4-1h0.3
	c1.1,0,1.7,0.3,1.7,0.9v0.2l-1.6,0.1l-1.8,0.6V70.5z M396.4,73c0-0.4,0.6-0.7,1.8-0.9h0.3l0.5,0.5v0.3L396.4,73z M399.6,73.2
	c0.1-0.4,0.5-0.8,0.9-0.7l1.3-0.1v0.2c-0.1,0.3-0.4,0.5-1,0.5L399.6,73.2z M416,72.8l0.5-0.2h0.3l-0.5,0.5L416,72.8z M439.2,4.5
	l-21.8,1.1l-0.2,0.2l0.4,3.9v3.1l0.2,0.2l0.2-0.2l7.7-0.2l2.6-0.3V12c-0.7-0.2-1-0.4-1-0.6v-0.5c1.7,0.3,2.7,0.8,3.2,1.5l1.1-0.2
	l20-1l20-0.9v-0.2l0.2-0.2L471.3,3L470,3.4l-4.6-0.3h-0.8c-0.6,0-1.1,0.2-1.6,0.6l0.6,1.3v0.3c-0.6,0-1.3-0.6-2.1-1.9L449.9,4
	c-1.1,0-2.3,0.4-3.2,1c-0.5-0.5-1.3-0.8-2-0.7l-1.1,0.1c-2.4,0.5-3.6,1-3.5,1.5h-0.2C439.6,5,439.4,4.5,439.2,4.5L439.2,4.5z
	 M427.3,6.5l1.5,0.3V7l-0.6,1h-0.3c-0.2,0-0.4-0.3-0.5-1L427.3,6.5z M419.9,8.8l1.5-0.4l0.1,1.1l-1.1,0.1l-0.3-0.3L419.9,8.8z
	 M456.2,8.4l1.7-1.4l0.4,0.8c-0.4,0.6-1.1,0.9-1.8,0.9L456.2,8.4z M460.3,9l2.1-0.8l0.1,1.1h-0.7L460,9.2c-0.3,0-0.5,0.4-0.4,1h-0.3
	l-0.2-0.2l0.3-1.2l0.8,0.1L460.3,9z M437,11.5c0.5-0.8,1-1.2,1.4-1.2l0.7,0.3c0,0.5-0.4,0.8-1.4,0.9H437z M453.4,14l-5.1,0.4
	l-2.1,0.1l-2,0.3v-0.2h-0.5c0.1,1-0.5,1.5-1.6,1.7l-0.4-0.8l-3.2,1.8h-0.2l0.1-0.5c0-0.3-0.5-0.7-1.4-1.2l0.3-0.5v-0.2l-0.2,0.2
	l-6.4,0.2c-1.5,0.1-3,0.4-4.4,0.9c-0.8,0.6-1.2,1.7-1.1,3.3v0.7c0.1,0.5,0.2,0.8,0.4,0.8c0.1,1.3,2,2,5.9,2l2.1-0.1
	c3.8-0.2,6,0,6.8,0.5l0.7,16.7c0.2,2.4,0.6,4.7,1.2,7c-0.4,1.1-0.6,2.3-0.6,3.5c0.1,1.3,0.7,2.4,1.6,3.2h-0.7c-0.7,0-1,0.5-0.9,1.4
	l0.1,1c0.2,3.1,1.9,5.1,5.2,5.8h0.7c1.2-0.2,2.3-0.9,3-2l-0.3-0.3h-0.8l-2.1,0.9h-0.2l0.6-0.9c0-0.2-0.3-0.4-0.8-0.4v-0.2h0.5
	l3.6,0.1c0.5,0,0.8-0.9,0.7-2.5c-0.1-0.6-0.4-1.2-0.7-1.8c0.3,0,0.5-0.1,0.5-0.4l-0.1-2l-0.2-0.2l-1.5,0.4c-0.4,0-0.8-0.2-1-0.6
	v-0.2h0.2l0.2,0.2h0.2l2.1-0.8L450,22.4l0.2,0.2l3.4-0.7c1-0.1,1.6-0.8,1.7-2.4c1.3,0.6,2.6,1,4,1.1v0.2c-0.8,0-1.3,0.3-1.4,0.7v0.2
	l0.3,0.3l1.2-0.1c2.2-0.2,3.3-0.5,3.2-1v-0.2l-1,0.1l-1.1,0.2v-0.2h-0.3v-0.3l0.8-0.2l2.5,0.5c1.1-0.9,1.7-2.2,1.8-3.5v-0.5
	C465,14.5,461.1,13.6,453.4,14L453.4,14z M447.3,17.6c-0.1-1.1,1-2,3.3-2.8c-0.8,2.7-1.8,4-2.9,4.1h-0.5v-0.2l0.5-0.2L447.3,17.6z
	 M442.4,18c0-0.2,0.3-0.4,0.8-0.5l1.8,0.4c0,0.5-0.4,0.8-1.4,0.9h-0.3l0.1-0.8H442.4z M458.7,18.8c0.4-0.7,1.1-1.1,1.9-1.2l0.5,0.1
	c-0.7,0.9-1.3,1.4-1.7,1.4L458.7,18.8z M435.4,21.8c0.4-1.2,1.1-1.9,2-1.9c0.5,0.2,0.8,0.4,0.9,0.6v0.3l-1,0.1
	c-0.5,0.5-1.1,0.8-1.8,0.9H435.4z M444.1,22.7c0.8,0,1.2,0.3,1.2,0.9l-0.3,0.8l0.2,0.2c1.9,0.2,2.8,0.5,2.8,1l-0.3,0.3
	c-0.9-0.8-2.1-1.1-3.3-1l0.3-0.5L444.1,22.7L444.1,22.7z M444,26.9h0.2l2.9,1.2c0,0.2-0.3,0.5-0.8,0.7l-1.8-0.2l0.1-0.8v-0.3
	c0-0.2-0.2-0.3-0.5-0.3L444,26.9z M444.4,30.7l2.3,0.7v0.2l-1.6,0.4h-0.2v-0.2h0.3v-0.3c0-0.3-0.4-0.5-1-0.4v-0.2L444.4,30.7z
	 M445.2,33.1h0.5l2.9,1.2V35l-0.2,0.2l-1.3-0.3l-0.3,0.3c-0.9-0.3-1.5-1-1.6-1.9V33.1z M444.4,44.5h0.8c0.7,0.8,1.1,1.3,1.4,1.2
	l-0.5,0.5c-0.7,0-1.4-0.2-2-0.6L444.4,44.5z M447.2,47.8l1.6,0.1l-0.3,0.7l-1.6-0.1L447.2,47.8z M443.8,50.8l0.5-0.5l2.8-0.1v0.5
	c-1.3,0.1-2,0.4-1.9,0.9C444.8,51.1,444.3,50.8,443.8,50.8L443.8,50.8z M438.1,65.4l-17.2,1.1c-0.3,0-0.5,0.1-0.5,0.4l0.1,1.3
	c0,1.1,0.4,2.1,1.1,2.9c-0.7,0-1,0.2-1,0.5l0.1,1.8l0.3,0.3l1.5-0.1c6-0.3,10.8-0.7,14.6-1.1l4.4,0.1c0.2-1.1,0.4-1.7,0.6-1.7h0.3
	v0.2l-0.3,0.5v0.7l0.3,0.3l2-0.1c1.1-0.1,1.6-0.5,1.6-1.2c0.7,0.5,1.5,0.8,2.3,0.9c0.6,0,1.1-0.4,1.3-1.1l0.5,0.5L450,72v0.2
	l24.6-1.3l0.3-0.3l-0.1-1c0-0.7-0.4-1.2-1.1-1.4l0.8-0.9l-0.2-1.6l0.1-1.6c-6.2,0-12.2,0.1-17.9,0.4c-3.8,0.1-7.6,0.6-11.3,1.4
	C442.9,65.5,440.5,65.3,438.1,65.4L438.1,65.4z M442.4,66c1.8,0.6,2.7,1,2.7,1.3v0.2h-0.2l-1.3-0.4l-0.5,0.5c-0.3,0-0.5-0.5-0.7-1.3
	V66z M437,68.4c0-0.4,0.5-0.8,1.6-1.2h0.2c-0.2,0.6-0.6,1.1-1.1,1.5h-0.2L437,68.4z M427.5,69.4h0.2l0.2,1.1v0.3h-0.5
	c-0.5-0.5-0.9-0.8-1.2-0.8v-0.2h0.2l0.7,0.1C427.4,70,427.5,69.8,427.5,69.4L427.5,69.4z M437.9,71l0.5-0.5h0.3
	c1.2-0.1,1.8,0.1,1.8,0.4v0.2c0,0.2-0.3,0.4-0.8,0.5C438.6,71.4,438,71.2,437.9,71z M461.7,3.4l-0.2,0.2l0.3,2l0.2,3.8
	c0,0.8,0.2,1.2,0.6,1.3l3.8-0.2c0.9,0,1.9-0.3,2.6-1c0.1,0.5,0.3,0.8,0.5,0.8l16.2-0.9c0.7-0.9,1.9-1.5,3-1.5v0.3
	c-1.3,0.2-1.9,0.5-1.9,0.8l0.3,0.3l4.1-0.2l1.7-2.6h0.2l0.2,0.6c0,0.2-0.3,0.7-1.1,1.4v0.2l13.6-0.2c4.6-0.2,9.2-0.6,13.7-1.4
	l-0.8-5.4l0.1-1.2V0.3l-52.6,2.9L461.7,3.4z M478.8,3.4l1-0.1c0.2,0,0.4,0.3,0.5,1c-0.3,0.8-0.5,1.2-0.8,1.2h-0.3L479,5.3l0.1-0.8
	V3.8L478.8,3.4z M496.3,4.2l1.1-0.4V4c1.6,0.4,2.3,0.9,2.4,1.4c-2.3-0.3-3.5-0.6-3.5-1V4.2z M487,11.9l-0.5,0.4
	c0.1,1.7-0.5,2.7-1.7,2.7h-0.2v-0.3c0.8-0.7,1.2-1.4,1.2-1.9v-0.2l-0.2-0.2c-3.3,0.2-6.4,1.4-8.8,3.6c-5.4,5.2-7.9,12.1-7.5,20.4
	l0.1,1.6c0.2,5.5,2.2,10.7,5.6,15c3.2,2.8,5.5,4.1,6.9,4.1h0.2l-0.1,0.5v0.3c0.8,1.1,5.1,1.7,12.8,2c3.7-0.2,6-1.1,6.9-2.8v-0.2
	h-0.8l-0.3-0.3v-0.2l0.3-0.5v-0.3l-0.2-0.2l0.6-0.2c1.7,0,3.4,0.2,5.1,0.6c0.9-0.3,1.8-0.9,2.4-1.6c4.6-4.9,6.6-11.7,6.2-20.4
	c-0.1-3.4-0.9-6.8-2.2-9.9c-1.1-0.3-1.7-0.6-1.7-0.9l0.6-0.7v-0.5c-4-7.3-11.3-10.7-22.1-10.2L487,11.9z M489.2,13.6l1.3-0.1
	c0.5,0,0.9,0.1,1,0.4v0.3c-0.2,0.5-0.6,0.8-1.1,0.7l-1.1,0.1L489.2,13.6z M477.4,20.1c0.3-0.7,0.9-1.1,1.6-1.2h0.5
	c0,0.8-0.6,1.2-1.9,1.2H477.4z M478.9,36.5c-0.1-2.6,0.2-5.2,0.9-7.8c1.7-6,5.5-9.2,11.3-9.5h0.2c5.4-0.3,9.3,2.2,11.9,7.4l1-0.4
	h0.3l-0.2,2l1.1,9l0.1,1l-0.2,3.1c0,0.2,0.1,0.4,0.2,0.5s0.3,0.2,0.5,0.1v0.2c-1.8,0.9-2.7,2.2-2.6,3.9v0.5l0.2,0.2
	c-2.4,1.6-3.6,3-3.6,4.1l-0.7-0.3c-1.8,0.3-2.7,1-2.7,2.1c-4.3,0.2-9.2-1.1-14.7-4l0.3-1.2v-0.2l-1.5-2.7l-5.2,1.9h-0.2
	c0.9-1.2,2.2-1.9,3.7-2.2l1.1-0.1l0.2-0.2C479.6,41.6,479.1,39.1,478.9,36.5z M504.9,24.3c0-0.4,0.5-0.6,1.6-0.7l2.3,0.2V24
	l-2.3,0.9L504.9,24.3z M470.4,34c0.1-0.4,0.3-0.7,0.5-0.7h0.2c0.9,0.7,1.5,1.1,1.9,1.1v0.2l-0.2,0.2L470.4,34z M475.6,35h0.2
	l1.4,1.1l-0.3,0.3l-1.8,0.1l-0.2-0.2l0.1-0.5C475.4,35.5,475.6,35.2,475.6,35L475.6,35z M504.2,54.2c0-0.3,0.3-0.5,1-0.5h0.8
	l0.3,0.3v0.5H506l-1.3-0.3h-0.3l-0.2,0.2V54.2z M476.4,63.4c-7.8,0.5-11.6,0.9-11.6,1.3l0.4,4.9l-0.1,1.5l0.7,0.3l19-1.2l1.1-0.1
	c0.4-0.7,1.1-1.2,1.9-1.4c0.6,0.1,0.8,0.3,0.8,0.4c0,0.3-0.2,0.5-0.6,0.5v0.3l6.7-0.4l26.7-1.2c0.8-0.1,1.1-0.3,1.1-0.6v-0.8
	l-0.4-3.6l0.1-2l-0.2-0.5l-0.2,0.2L508,61.6c-2.1,0-4.1,0.5-5.8,1.6h-0.7l-1.2-1.3l-2.8,0.3L476.4,63.4z M486.1,66.8
	c0-0.3,0.5-0.5,1.6-0.7v0.3c-0.2,0.5-0.7,0.9-1.3,0.9h-0.3L486.1,66.8z"/>
</svg>
